M48
; DRILL file {KiCad 9.0.7-9.0.7~ubuntu24.04.1} date 2026-01-13T19:14:42-0800
; FORMAT={-:-/ absolute / inch / decimal}
; #@! TF.CreationDate,2026-01-13T19:14:42-08:00
; #@! TF.GenerationSoftware,Kicad,Pcbnew,9.0.7-9.0.7~ubuntu24.04.1
; #@! TF.FileFunction,Plated,1,2,PTH
FMAT,2
INCH
; #@! TA.AperFunction,Plated,PTH,ViaDrill
T1C0.0118
; #@! TA.AperFunction,Plated,PTH,ViaDrill
T2C0.0190
; #@! TA.AperFunction,Plated,PTH,ComponentDrill
T3C0.0315
; #@! TA.AperFunction,Plated,PTH,ComponentDrill
T4C0.0394
; #@! TA.AperFunction,Plated,PTH,ComponentDrill
T5C0.0433
; #@! TA.AperFunction,Plated,PTH,ComponentDrill
T6C0.0669
; #@! TA.AperFunction,Plated,PTH,ComponentDrill
T7C0.0984
%
G90
G05
T1
X5.176Y-3.7685
T2
X7.1063Y-3.7795
T3
X4.3673Y-3.339
X4.3673Y-3.439
X4.8492Y-3.185
X4.8492Y-3.2637
X4.8492Y-3.3425
X4.928Y-3.185
X4.928Y-3.2637
X4.928Y-3.3425
T4
X4.4031Y-3.9413
X4.5031Y-3.9413
X4.6031Y-3.9413
X4.7031Y-3.9413
X4.8031Y-3.9413
X4.9031Y-3.9413
X5.0031Y-3.9413
X5.1031Y-3.9413
X5.2031Y-3.9413
X5.6028Y-4.124
X5.6028Y-4.624
X5.7028Y-4.124
X5.7028Y-4.624
X5.8028Y-4.124
X5.8028Y-4.624
X5.9028Y-4.124
X5.9028Y-4.624
X6.0028Y-4.124
X6.0028Y-4.624
X6.1028Y-4.124
X6.1028Y-4.624
X6.9685Y-3.9862
X6.9685Y-4.0862
X6.9685Y-4.1862
X6.9685Y-4.2862
X6.9685Y-4.3862
X6.9685Y-4.4862
X6.9685Y-4.5862
T5
X4.3386Y-3.089
X4.3386Y-3.689
X4.4386Y-3.089
X4.4386Y-3.189
X4.4386Y-3.689
X4.5386Y-3.089
X4.5386Y-3.689
X4.5866Y-3.5689
X4.6386Y-3.089
X4.6386Y-3.689
X4.6866Y-3.5689
X4.7386Y-3.089
X4.7386Y-3.689
X4.7866Y-3.5689
X4.8386Y-3.089
X4.8386Y-3.689
X4.8866Y-3.5689
X4.9386Y-3.089
X4.9386Y-3.689
X4.9866Y-3.5689
X5.0386Y-3.089
X5.0386Y-3.689
X5.1386Y-3.089
X5.1386Y-3.689
X5.2386Y-3.089
X5.2386Y-3.689
X5.3386Y-3.089
X5.3386Y-3.689
X5.4386Y-3.089
X5.4386Y-3.689
X5.5386Y-3.089
X5.5386Y-3.689
X5.6386Y-3.089
X5.6386Y-3.689
X5.7386Y-3.089
X5.7386Y-3.689
X5.8386Y-3.089
X5.8386Y-3.689
X5.9386Y-3.089
X5.9386Y-3.689
X6.0386Y-3.089
X6.0386Y-3.689
X6.1386Y-3.089
X6.1386Y-3.189
X6.1386Y-3.289
X6.1386Y-3.389
X6.1386Y-3.489
X6.1386Y-3.589
X6.1386Y-3.689
X6.2386Y-3.089
X6.2386Y-3.689
X6.3386Y-3.089
X6.3386Y-3.689
X6.4386Y-3.089
X6.4386Y-3.689
X6.5386Y-3.089
X6.5386Y-3.689
X6.6386Y-3.089
X6.6386Y-3.689
T6
X6.9882Y-3.0724
X6.9882Y-3.2283
X6.9882Y-3.3843
X6.9882Y-3.5402
T7
X4.4031Y-4.6413
X5.2031Y-4.6413
X5.4528Y-4.124
X5.4528Y-4.624
X6.2528Y-4.124
X6.2528Y-4.624
X6.4685Y-3.8862
X6.4685Y-4.6862
M30
