%TF.GenerationSoftware,KiCad,Pcbnew,9.0.7-9.0.7~ubuntu24.04.1*%
%TF.CreationDate,2026-01-13T19:14:42-08:00*%
%TF.ProjectId,PIMU Suite,50494d55-2053-4756-9974-652e6b696361,4*%
%TF.SameCoordinates,Original*%
%TF.FileFunction,Soldermask,Bot*%
%TF.FilePolarity,Negative*%
%FSLAX46Y46*%
G04 Gerber Fmt 4.6, Leading zero omitted, Abs format (unit mm)*
G04 Created by KiCad (PCBNEW 9.0.7-9.0.7~ubuntu24.04.1) date 2026-01-13 19:14:42*
%MOMM*%
%LPD*%
G01*
G04 APERTURE LIST*
G04 APERTURE END LIST*
G36*
X164418789Y-117384289D02*
G01*
X164429520Y-117384289D01*
X164482369Y-117392659D01*
X164622029Y-117411046D01*
X164656104Y-117420176D01*
X164685372Y-117424812D01*
X164741658Y-117443100D01*
X164830591Y-117466930D01*
X164887333Y-117490433D01*
X164931734Y-117504860D01*
X164973329Y-117526054D01*
X165030071Y-117549557D01*
X165109804Y-117595591D01*
X165162541Y-117622462D01*
X165186517Y-117639882D01*
X165217069Y-117657521D01*
X165328834Y-117743281D01*
X165372109Y-117774722D01*
X165379693Y-117782306D01*
X165388358Y-117788955D01*
X165541044Y-117941641D01*
X165547692Y-117950305D01*
X165555278Y-117957891D01*
X165586722Y-118001171D01*
X165672478Y-118112930D01*
X165690115Y-118143479D01*
X165707538Y-118167459D01*
X165734411Y-118220201D01*
X165780442Y-118299928D01*
X165803942Y-118356663D01*
X165825140Y-118398266D01*
X165839568Y-118442673D01*
X165863069Y-118499408D01*
X165886895Y-118588328D01*
X165905188Y-118644628D01*
X165909824Y-118673902D01*
X165918953Y-118707970D01*
X165937338Y-118847618D01*
X165945711Y-118900480D01*
X165945711Y-118911211D01*
X165947137Y-118922043D01*
X165947137Y-119137956D01*
X165945711Y-119148787D01*
X165945711Y-119159520D01*
X165937337Y-119212386D01*
X165918953Y-119352029D01*
X165909824Y-119386095D01*
X165905188Y-119415372D01*
X165886893Y-119471675D01*
X165863069Y-119560591D01*
X165839570Y-119617321D01*
X165825140Y-119661734D01*
X165803940Y-119703340D01*
X165780442Y-119760071D01*
X165734416Y-119839789D01*
X165707538Y-119892541D01*
X165690113Y-119916524D01*
X165672478Y-119947069D01*
X165586736Y-120058810D01*
X165555278Y-120102109D01*
X165547689Y-120109697D01*
X165541044Y-120118358D01*
X165388358Y-120271044D01*
X165379697Y-120277689D01*
X165372109Y-120285278D01*
X165328810Y-120316736D01*
X165217069Y-120402478D01*
X165186524Y-120420113D01*
X165162541Y-120437538D01*
X165109789Y-120464416D01*
X165030071Y-120510442D01*
X164973340Y-120533940D01*
X164931734Y-120555140D01*
X164887321Y-120569570D01*
X164830591Y-120593069D01*
X164741675Y-120616893D01*
X164685372Y-120635188D01*
X164656095Y-120639824D01*
X164622029Y-120648953D01*
X164482382Y-120667338D01*
X164429520Y-120675711D01*
X164418788Y-120675711D01*
X164407957Y-120677137D01*
X164192043Y-120677137D01*
X164181212Y-120675711D01*
X164170480Y-120675711D01*
X164117618Y-120667338D01*
X163977970Y-120648953D01*
X163943902Y-120639824D01*
X163914628Y-120635188D01*
X163858328Y-120616895D01*
X163769408Y-120593069D01*
X163712673Y-120569568D01*
X163668266Y-120555140D01*
X163626663Y-120533942D01*
X163569928Y-120510442D01*
X163490201Y-120464411D01*
X163437459Y-120437538D01*
X163413479Y-120420115D01*
X163382930Y-120402478D01*
X163271171Y-120316722D01*
X163227891Y-120285278D01*
X163220305Y-120277692D01*
X163211641Y-120271044D01*
X163058955Y-120118358D01*
X163052306Y-120109693D01*
X163044722Y-120102109D01*
X163013281Y-120058834D01*
X162927521Y-119947069D01*
X162909882Y-119916517D01*
X162892462Y-119892541D01*
X162865591Y-119839804D01*
X162819557Y-119760071D01*
X162796054Y-119703329D01*
X162774860Y-119661734D01*
X162760433Y-119617333D01*
X162736930Y-119560591D01*
X162713100Y-119471658D01*
X162694812Y-119415372D01*
X162690176Y-119386104D01*
X162681046Y-119352029D01*
X162662660Y-119212373D01*
X162654289Y-119159520D01*
X162654289Y-119148787D01*
X162652863Y-119137956D01*
X162652863Y-118922043D01*
X162654289Y-118911211D01*
X162654289Y-118900480D01*
X162662659Y-118847631D01*
X162681046Y-118707970D01*
X162690176Y-118673893D01*
X162694812Y-118644628D01*
X162713099Y-118588346D01*
X162736930Y-118499408D01*
X162760434Y-118442662D01*
X162774860Y-118398266D01*
X162796051Y-118356674D01*
X162819557Y-118299928D01*
X162865595Y-118220187D01*
X162892462Y-118167459D01*
X162909879Y-118143486D01*
X162927521Y-118112930D01*
X163013294Y-118001146D01*
X163044722Y-117957891D01*
X163052303Y-117950309D01*
X163058955Y-117941641D01*
X163211641Y-117788955D01*
X163220309Y-117782303D01*
X163227891Y-117774722D01*
X163271146Y-117743294D01*
X163382930Y-117657521D01*
X163413486Y-117639879D01*
X163437459Y-117622462D01*
X163490187Y-117595595D01*
X163569928Y-117549557D01*
X163626674Y-117526051D01*
X163668266Y-117504860D01*
X163712662Y-117490434D01*
X163769408Y-117466930D01*
X163858346Y-117443099D01*
X163914628Y-117424812D01*
X163943893Y-117420176D01*
X163977970Y-117411046D01*
X164117631Y-117392659D01*
X164170480Y-117384289D01*
X164181211Y-117384289D01*
X164192043Y-117382863D01*
X164407957Y-117382863D01*
X164418789Y-117384289D01*
G37*
G36*
X177296476Y-117795090D02*
G01*
X177486008Y-117856673D01*
X177663573Y-117947147D01*
X177824799Y-118064284D01*
X177965716Y-118205201D01*
X178082853Y-118366427D01*
X178173327Y-118543992D01*
X178234910Y-118733524D01*
X178266085Y-118930357D01*
X178266085Y-119129643D01*
X178234910Y-119326476D01*
X178173327Y-119516008D01*
X178082853Y-119693573D01*
X177965716Y-119854799D01*
X177824799Y-119995716D01*
X177663573Y-120112853D01*
X177486008Y-120203327D01*
X177296476Y-120264910D01*
X177099643Y-120296085D01*
X176900357Y-120296085D01*
X176703524Y-120264910D01*
X176513992Y-120203327D01*
X176336427Y-120112853D01*
X176175201Y-119995716D01*
X176034284Y-119854799D01*
X175917147Y-119693573D01*
X175826673Y-119516008D01*
X175765090Y-119326476D01*
X175733915Y-119129643D01*
X175733915Y-118930357D01*
X175765090Y-118733524D01*
X175826673Y-118543992D01*
X175917147Y-118366427D01*
X176034284Y-118205201D01*
X176175201Y-118064284D01*
X176336427Y-117947147D01*
X176513992Y-117856673D01*
X176703524Y-117795090D01*
X176900357Y-117763915D01*
X177099643Y-117763915D01*
X177296476Y-117795090D01*
G37*
G36*
X112202868Y-116065739D02*
G01*
X112437877Y-116128710D01*
X112662657Y-116221817D01*
X112873361Y-116343467D01*
X113066383Y-116491578D01*
X113238422Y-116663617D01*
X113386533Y-116856639D01*
X113508183Y-117067343D01*
X113601290Y-117292123D01*
X113664261Y-117527132D01*
X113696018Y-117768350D01*
X113696018Y-118011650D01*
X113664261Y-118252868D01*
X113601290Y-118487877D01*
X113508183Y-118712657D01*
X113386533Y-118923361D01*
X113238422Y-119116383D01*
X113066383Y-119288422D01*
X112873361Y-119436533D01*
X112662657Y-119558183D01*
X112437877Y-119651290D01*
X112202868Y-119714261D01*
X111961650Y-119746018D01*
X111718350Y-119746018D01*
X111477132Y-119714261D01*
X111242123Y-119651290D01*
X111017343Y-119558183D01*
X110806639Y-119436533D01*
X110613617Y-119288422D01*
X110441578Y-119116383D01*
X110293467Y-118923361D01*
X110171817Y-118712657D01*
X110078710Y-118487877D01*
X110015739Y-118252868D01*
X109983982Y-118011650D01*
X109983982Y-117768350D01*
X110015739Y-117527132D01*
X110078710Y-117292123D01*
X110171817Y-117067343D01*
X110293467Y-116856639D01*
X110441578Y-116663617D01*
X110613617Y-116491578D01*
X110806639Y-116343467D01*
X111017343Y-116221817D01*
X111242123Y-116128710D01*
X111477132Y-116065739D01*
X111718350Y-116033982D01*
X111961650Y-116033982D01*
X112202868Y-116065739D01*
G37*
G36*
X132522868Y-116065739D02*
G01*
X132757877Y-116128710D01*
X132982657Y-116221817D01*
X133193361Y-116343467D01*
X133386383Y-116491578D01*
X133558422Y-116663617D01*
X133706533Y-116856639D01*
X133828183Y-117067343D01*
X133921290Y-117292123D01*
X133984261Y-117527132D01*
X134016018Y-117768350D01*
X134016018Y-118011650D01*
X133984261Y-118252868D01*
X133921290Y-118487877D01*
X133828183Y-118712657D01*
X133706533Y-118923361D01*
X133558422Y-119116383D01*
X133386383Y-119288422D01*
X133193361Y-119436533D01*
X132982657Y-119558183D01*
X132757877Y-119651290D01*
X132522868Y-119714261D01*
X132281650Y-119746018D01*
X132038350Y-119746018D01*
X131797132Y-119714261D01*
X131562123Y-119651290D01*
X131337343Y-119558183D01*
X131126639Y-119436533D01*
X130933617Y-119288422D01*
X130761578Y-119116383D01*
X130613467Y-118923361D01*
X130491817Y-118712657D01*
X130398710Y-118487877D01*
X130335739Y-118252868D01*
X130303982Y-118011650D01*
X130303982Y-117768350D01*
X130335739Y-117527132D01*
X130398710Y-117292123D01*
X130491817Y-117067343D01*
X130613467Y-116856639D01*
X130761578Y-116663617D01*
X130933617Y-116491578D01*
X131126639Y-116343467D01*
X131337343Y-116221817D01*
X131562123Y-116128710D01*
X131797132Y-116065739D01*
X132038350Y-116033982D01*
X132281650Y-116033982D01*
X132522868Y-116065739D01*
G37*
G36*
X138618789Y-115804289D02*
G01*
X138629520Y-115804289D01*
X138682369Y-115812659D01*
X138822029Y-115831046D01*
X138856104Y-115840176D01*
X138885372Y-115844812D01*
X138941658Y-115863100D01*
X139030591Y-115886930D01*
X139087333Y-115910433D01*
X139131734Y-115924860D01*
X139173329Y-115946054D01*
X139230071Y-115969557D01*
X139309804Y-116015591D01*
X139362541Y-116042462D01*
X139386517Y-116059882D01*
X139417069Y-116077521D01*
X139528834Y-116163281D01*
X139572109Y-116194722D01*
X139579693Y-116202306D01*
X139588358Y-116208955D01*
X139741044Y-116361641D01*
X139747692Y-116370305D01*
X139755278Y-116377891D01*
X139786722Y-116421171D01*
X139872478Y-116532930D01*
X139890115Y-116563479D01*
X139907538Y-116587459D01*
X139934411Y-116640201D01*
X139980442Y-116719928D01*
X140003942Y-116776663D01*
X140025140Y-116818266D01*
X140039568Y-116862673D01*
X140063069Y-116919408D01*
X140086895Y-117008328D01*
X140105188Y-117064628D01*
X140109824Y-117093902D01*
X140118953Y-117127970D01*
X140137338Y-117267618D01*
X140145711Y-117320480D01*
X140145711Y-117331211D01*
X140147137Y-117342043D01*
X140147137Y-117557956D01*
X140145711Y-117568787D01*
X140145711Y-117579520D01*
X140137337Y-117632386D01*
X140118953Y-117772029D01*
X140109824Y-117806095D01*
X140105188Y-117835372D01*
X140086893Y-117891675D01*
X140063069Y-117980591D01*
X140039570Y-118037321D01*
X140025140Y-118081734D01*
X140003940Y-118123340D01*
X139980442Y-118180071D01*
X139934416Y-118259789D01*
X139907538Y-118312541D01*
X139890113Y-118336524D01*
X139872478Y-118367069D01*
X139786736Y-118478810D01*
X139755278Y-118522109D01*
X139747689Y-118529697D01*
X139741044Y-118538358D01*
X139588358Y-118691044D01*
X139579697Y-118697689D01*
X139572109Y-118705278D01*
X139528810Y-118736736D01*
X139417069Y-118822478D01*
X139386524Y-118840113D01*
X139362541Y-118857538D01*
X139309789Y-118884416D01*
X139230071Y-118930442D01*
X139173340Y-118953940D01*
X139131734Y-118975140D01*
X139087321Y-118989570D01*
X139030591Y-119013069D01*
X138941675Y-119036893D01*
X138885372Y-119055188D01*
X138856095Y-119059824D01*
X138822029Y-119068953D01*
X138682382Y-119087338D01*
X138629520Y-119095711D01*
X138618788Y-119095711D01*
X138607957Y-119097137D01*
X138392043Y-119097137D01*
X138381212Y-119095711D01*
X138370480Y-119095711D01*
X138317618Y-119087338D01*
X138177970Y-119068953D01*
X138143902Y-119059824D01*
X138114628Y-119055188D01*
X138058328Y-119036895D01*
X137969408Y-119013069D01*
X137912673Y-118989568D01*
X137868266Y-118975140D01*
X137826663Y-118953942D01*
X137769928Y-118930442D01*
X137690201Y-118884411D01*
X137637459Y-118857538D01*
X137613479Y-118840115D01*
X137582930Y-118822478D01*
X137471171Y-118736722D01*
X137427891Y-118705278D01*
X137420305Y-118697692D01*
X137411641Y-118691044D01*
X137258955Y-118538358D01*
X137252306Y-118529693D01*
X137244722Y-118522109D01*
X137213281Y-118478834D01*
X137127521Y-118367069D01*
X137109882Y-118336517D01*
X137092462Y-118312541D01*
X137065591Y-118259804D01*
X137019557Y-118180071D01*
X136996054Y-118123329D01*
X136974860Y-118081734D01*
X136960433Y-118037333D01*
X136936930Y-117980591D01*
X136913100Y-117891658D01*
X136894812Y-117835372D01*
X136890176Y-117806104D01*
X136881046Y-117772029D01*
X136862660Y-117632373D01*
X136854289Y-117579520D01*
X136854289Y-117568787D01*
X136852863Y-117557956D01*
X136852863Y-117342043D01*
X136854289Y-117331211D01*
X136854289Y-117320480D01*
X136862659Y-117267631D01*
X136881046Y-117127970D01*
X136890176Y-117093893D01*
X136894812Y-117064628D01*
X136913099Y-117008346D01*
X136936930Y-116919408D01*
X136960434Y-116862662D01*
X136974860Y-116818266D01*
X136996051Y-116776674D01*
X137019557Y-116719928D01*
X137065595Y-116640187D01*
X137092462Y-116587459D01*
X137109879Y-116563486D01*
X137127521Y-116532930D01*
X137213294Y-116421146D01*
X137244722Y-116377891D01*
X137252303Y-116370309D01*
X137258955Y-116361641D01*
X137411641Y-116208955D01*
X137420309Y-116202303D01*
X137427891Y-116194722D01*
X137471146Y-116163294D01*
X137582930Y-116077521D01*
X137613486Y-116059879D01*
X137637459Y-116042462D01*
X137690187Y-116015595D01*
X137769928Y-115969557D01*
X137826674Y-115946051D01*
X137868266Y-115924860D01*
X137912662Y-115910434D01*
X137969408Y-115886930D01*
X138058346Y-115863099D01*
X138114628Y-115844812D01*
X138143893Y-115840176D01*
X138177970Y-115831046D01*
X138317631Y-115812659D01*
X138370480Y-115804289D01*
X138381211Y-115804289D01*
X138392043Y-115802863D01*
X138607957Y-115802863D01*
X138618789Y-115804289D01*
G37*
G36*
X158938789Y-115804289D02*
G01*
X158949520Y-115804289D01*
X159002369Y-115812659D01*
X159142029Y-115831046D01*
X159176104Y-115840176D01*
X159205372Y-115844812D01*
X159261658Y-115863100D01*
X159350591Y-115886930D01*
X159407333Y-115910433D01*
X159451734Y-115924860D01*
X159493329Y-115946054D01*
X159550071Y-115969557D01*
X159629804Y-116015591D01*
X159682541Y-116042462D01*
X159706517Y-116059882D01*
X159737069Y-116077521D01*
X159848834Y-116163281D01*
X159892109Y-116194722D01*
X159899693Y-116202306D01*
X159908358Y-116208955D01*
X160061044Y-116361641D01*
X160067692Y-116370305D01*
X160075278Y-116377891D01*
X160106722Y-116421171D01*
X160192478Y-116532930D01*
X160210115Y-116563479D01*
X160227538Y-116587459D01*
X160254411Y-116640201D01*
X160300442Y-116719928D01*
X160323942Y-116776663D01*
X160345140Y-116818266D01*
X160359568Y-116862673D01*
X160383069Y-116919408D01*
X160406895Y-117008328D01*
X160425188Y-117064628D01*
X160429824Y-117093902D01*
X160438953Y-117127970D01*
X160457338Y-117267618D01*
X160465711Y-117320480D01*
X160465711Y-117331211D01*
X160467137Y-117342043D01*
X160467137Y-117557956D01*
X160465711Y-117568787D01*
X160465711Y-117579520D01*
X160457337Y-117632386D01*
X160438953Y-117772029D01*
X160429824Y-117806095D01*
X160425188Y-117835372D01*
X160406893Y-117891675D01*
X160383069Y-117980591D01*
X160359570Y-118037321D01*
X160345140Y-118081734D01*
X160323940Y-118123340D01*
X160300442Y-118180071D01*
X160254416Y-118259789D01*
X160227538Y-118312541D01*
X160210113Y-118336524D01*
X160192478Y-118367069D01*
X160106736Y-118478810D01*
X160075278Y-118522109D01*
X160067689Y-118529697D01*
X160061044Y-118538358D01*
X159908358Y-118691044D01*
X159899697Y-118697689D01*
X159892109Y-118705278D01*
X159848810Y-118736736D01*
X159737069Y-118822478D01*
X159706524Y-118840113D01*
X159682541Y-118857538D01*
X159629789Y-118884416D01*
X159550071Y-118930442D01*
X159493340Y-118953940D01*
X159451734Y-118975140D01*
X159407321Y-118989570D01*
X159350591Y-119013069D01*
X159261675Y-119036893D01*
X159205372Y-119055188D01*
X159176095Y-119059824D01*
X159142029Y-119068953D01*
X159002382Y-119087338D01*
X158949520Y-119095711D01*
X158938788Y-119095711D01*
X158927957Y-119097137D01*
X158712043Y-119097137D01*
X158701212Y-119095711D01*
X158690480Y-119095711D01*
X158637618Y-119087338D01*
X158497970Y-119068953D01*
X158463902Y-119059824D01*
X158434628Y-119055188D01*
X158378328Y-119036895D01*
X158289408Y-119013069D01*
X158232673Y-118989568D01*
X158188266Y-118975140D01*
X158146663Y-118953942D01*
X158089928Y-118930442D01*
X158010201Y-118884411D01*
X157957459Y-118857538D01*
X157933479Y-118840115D01*
X157902930Y-118822478D01*
X157791171Y-118736722D01*
X157747891Y-118705278D01*
X157740305Y-118697692D01*
X157731641Y-118691044D01*
X157578955Y-118538358D01*
X157572306Y-118529693D01*
X157564722Y-118522109D01*
X157533281Y-118478834D01*
X157447521Y-118367069D01*
X157429882Y-118336517D01*
X157412462Y-118312541D01*
X157385591Y-118259804D01*
X157339557Y-118180071D01*
X157316054Y-118123329D01*
X157294860Y-118081734D01*
X157280433Y-118037333D01*
X157256930Y-117980591D01*
X157233100Y-117891658D01*
X157214812Y-117835372D01*
X157210176Y-117806104D01*
X157201046Y-117772029D01*
X157182660Y-117632373D01*
X157174289Y-117579520D01*
X157174289Y-117568787D01*
X157172863Y-117557956D01*
X157172863Y-117342043D01*
X157174289Y-117331211D01*
X157174289Y-117320480D01*
X157182659Y-117267631D01*
X157201046Y-117127970D01*
X157210176Y-117093893D01*
X157214812Y-117064628D01*
X157233099Y-117008346D01*
X157256930Y-116919408D01*
X157280434Y-116862662D01*
X157294860Y-116818266D01*
X157316051Y-116776674D01*
X157339557Y-116719928D01*
X157385595Y-116640187D01*
X157412462Y-116587459D01*
X157429879Y-116563486D01*
X157447521Y-116532930D01*
X157533294Y-116421146D01*
X157564722Y-116377891D01*
X157572303Y-116370309D01*
X157578955Y-116361641D01*
X157731641Y-116208955D01*
X157740309Y-116202303D01*
X157747891Y-116194722D01*
X157791146Y-116163294D01*
X157902930Y-116077521D01*
X157933486Y-116059879D01*
X157957459Y-116042462D01*
X158010187Y-116015595D01*
X158089928Y-115969557D01*
X158146674Y-115946051D01*
X158188266Y-115924860D01*
X158232662Y-115910434D01*
X158289408Y-115886930D01*
X158378346Y-115863099D01*
X158434628Y-115844812D01*
X158463893Y-115840176D01*
X158497970Y-115831046D01*
X158637631Y-115812659D01*
X158690480Y-115804289D01*
X158701211Y-115804289D01*
X158712043Y-115802863D01*
X158927957Y-115802863D01*
X158938789Y-115804289D01*
G37*
G36*
X142582810Y-116550667D02*
G01*
X142753019Y-116621170D01*
X142906203Y-116723525D01*
X143036475Y-116853797D01*
X143138830Y-117006981D01*
X143209333Y-117177190D01*
X143245275Y-117357883D01*
X143245275Y-117542117D01*
X143209333Y-117722810D01*
X143138830Y-117893019D01*
X143036475Y-118046203D01*
X142906203Y-118176475D01*
X142753019Y-118278830D01*
X142582810Y-118349333D01*
X142402117Y-118385275D01*
X142217883Y-118385275D01*
X142037190Y-118349333D01*
X141866981Y-118278830D01*
X141713797Y-118176475D01*
X141583525Y-118046203D01*
X141481170Y-117893019D01*
X141410667Y-117722810D01*
X141374725Y-117542117D01*
X141374725Y-117357883D01*
X141410667Y-117177190D01*
X141481170Y-117006981D01*
X141583525Y-116853797D01*
X141713797Y-116723525D01*
X141866981Y-116621170D01*
X142037190Y-116550667D01*
X142217883Y-116514725D01*
X142402117Y-116514725D01*
X142582810Y-116550667D01*
G37*
G36*
X145122810Y-116550667D02*
G01*
X145293019Y-116621170D01*
X145446203Y-116723525D01*
X145576475Y-116853797D01*
X145678830Y-117006981D01*
X145749333Y-117177190D01*
X145785275Y-117357883D01*
X145785275Y-117542117D01*
X145749333Y-117722810D01*
X145678830Y-117893019D01*
X145576475Y-118046203D01*
X145446203Y-118176475D01*
X145293019Y-118278830D01*
X145122810Y-118349333D01*
X144942117Y-118385275D01*
X144757883Y-118385275D01*
X144577190Y-118349333D01*
X144406981Y-118278830D01*
X144253797Y-118176475D01*
X144123525Y-118046203D01*
X144021170Y-117893019D01*
X143950667Y-117722810D01*
X143914725Y-117542117D01*
X143914725Y-117357883D01*
X143950667Y-117177190D01*
X144021170Y-117006981D01*
X144123525Y-116853797D01*
X144253797Y-116723525D01*
X144406981Y-116621170D01*
X144577190Y-116550667D01*
X144757883Y-116514725D01*
X144942117Y-116514725D01*
X145122810Y-116550667D01*
G37*
G36*
X147662810Y-116550667D02*
G01*
X147833019Y-116621170D01*
X147986203Y-116723525D01*
X148116475Y-116853797D01*
X148218830Y-117006981D01*
X148289333Y-117177190D01*
X148325275Y-117357883D01*
X148325275Y-117542117D01*
X148289333Y-117722810D01*
X148218830Y-117893019D01*
X148116475Y-118046203D01*
X147986203Y-118176475D01*
X147833019Y-118278830D01*
X147662810Y-118349333D01*
X147482117Y-118385275D01*
X147297883Y-118385275D01*
X147117190Y-118349333D01*
X146946981Y-118278830D01*
X146793797Y-118176475D01*
X146663525Y-118046203D01*
X146561170Y-117893019D01*
X146490667Y-117722810D01*
X146454725Y-117542117D01*
X146454725Y-117357883D01*
X146490667Y-117177190D01*
X146561170Y-117006981D01*
X146663525Y-116853797D01*
X146793797Y-116723525D01*
X146946981Y-116621170D01*
X147117190Y-116550667D01*
X147297883Y-116514725D01*
X147482117Y-116514725D01*
X147662810Y-116550667D01*
G37*
G36*
X150202810Y-116550667D02*
G01*
X150373019Y-116621170D01*
X150526203Y-116723525D01*
X150656475Y-116853797D01*
X150758830Y-117006981D01*
X150829333Y-117177190D01*
X150865275Y-117357883D01*
X150865275Y-117542117D01*
X150829333Y-117722810D01*
X150758830Y-117893019D01*
X150656475Y-118046203D01*
X150526203Y-118176475D01*
X150373019Y-118278830D01*
X150202810Y-118349333D01*
X150022117Y-118385275D01*
X149837883Y-118385275D01*
X149657190Y-118349333D01*
X149486981Y-118278830D01*
X149333797Y-118176475D01*
X149203525Y-118046203D01*
X149101170Y-117893019D01*
X149030667Y-117722810D01*
X148994725Y-117542117D01*
X148994725Y-117357883D01*
X149030667Y-117177190D01*
X149101170Y-117006981D01*
X149203525Y-116853797D01*
X149333797Y-116723525D01*
X149486981Y-116621170D01*
X149657190Y-116550667D01*
X149837883Y-116514725D01*
X150022117Y-116514725D01*
X150202810Y-116550667D01*
G37*
G36*
X152742810Y-116550667D02*
G01*
X152913019Y-116621170D01*
X153066203Y-116723525D01*
X153196475Y-116853797D01*
X153298830Y-117006981D01*
X153369333Y-117177190D01*
X153405275Y-117357883D01*
X153405275Y-117542117D01*
X153369333Y-117722810D01*
X153298830Y-117893019D01*
X153196475Y-118046203D01*
X153066203Y-118176475D01*
X152913019Y-118278830D01*
X152742810Y-118349333D01*
X152562117Y-118385275D01*
X152377883Y-118385275D01*
X152197190Y-118349333D01*
X152026981Y-118278830D01*
X151873797Y-118176475D01*
X151743525Y-118046203D01*
X151641170Y-117893019D01*
X151570667Y-117722810D01*
X151534725Y-117542117D01*
X151534725Y-117357883D01*
X151570667Y-117177190D01*
X151641170Y-117006981D01*
X151743525Y-116853797D01*
X151873797Y-116723525D01*
X152026981Y-116621170D01*
X152197190Y-116550667D01*
X152377883Y-116514725D01*
X152562117Y-116514725D01*
X152742810Y-116550667D01*
G37*
G36*
X155282810Y-116550667D02*
G01*
X155453019Y-116621170D01*
X155606203Y-116723525D01*
X155736475Y-116853797D01*
X155838830Y-117006981D01*
X155909333Y-117177190D01*
X155945275Y-117357883D01*
X155945275Y-117542117D01*
X155909333Y-117722810D01*
X155838830Y-117893019D01*
X155736475Y-118046203D01*
X155606203Y-118176475D01*
X155453019Y-118278830D01*
X155282810Y-118349333D01*
X155102117Y-118385275D01*
X154917883Y-118385275D01*
X154737190Y-118349333D01*
X154566981Y-118278830D01*
X154413797Y-118176475D01*
X154283525Y-118046203D01*
X154181170Y-117893019D01*
X154110667Y-117722810D01*
X154074725Y-117542117D01*
X154074725Y-117357883D01*
X154110667Y-117177190D01*
X154181170Y-117006981D01*
X154283525Y-116853797D01*
X154413797Y-116723525D01*
X154566981Y-116621170D01*
X154737190Y-116550667D01*
X154917883Y-116514725D01*
X155102117Y-116514725D01*
X155282810Y-116550667D01*
G37*
G36*
X177272810Y-115590667D02*
G01*
X177443019Y-115661170D01*
X177596203Y-115763525D01*
X177726475Y-115893797D01*
X177828830Y-116046981D01*
X177899333Y-116217190D01*
X177935275Y-116397883D01*
X177935275Y-116582117D01*
X177899333Y-116762810D01*
X177828830Y-116933019D01*
X177726475Y-117086203D01*
X177596203Y-117216475D01*
X177443019Y-117318830D01*
X177272810Y-117389333D01*
X177092117Y-117425275D01*
X176907883Y-117425275D01*
X176727190Y-117389333D01*
X176556981Y-117318830D01*
X176403797Y-117216475D01*
X176273525Y-117086203D01*
X176171170Y-116933019D01*
X176100667Y-116762810D01*
X176064725Y-116582117D01*
X176064725Y-116397883D01*
X176100667Y-116217190D01*
X176171170Y-116046981D01*
X176273525Y-115893797D01*
X176403797Y-115763525D01*
X176556981Y-115661170D01*
X176727190Y-115590667D01*
X176907883Y-115554725D01*
X177092117Y-115554725D01*
X177272810Y-115590667D01*
G37*
G36*
X177272810Y-113050667D02*
G01*
X177443019Y-113121170D01*
X177596203Y-113223525D01*
X177726475Y-113353797D01*
X177828830Y-113506981D01*
X177899333Y-113677190D01*
X177935275Y-113857883D01*
X177935275Y-114042117D01*
X177899333Y-114222810D01*
X177828830Y-114393019D01*
X177726475Y-114546203D01*
X177596203Y-114676475D01*
X177443019Y-114778830D01*
X177272810Y-114849333D01*
X177092117Y-114885275D01*
X176907883Y-114885275D01*
X176727190Y-114849333D01*
X176556981Y-114778830D01*
X176403797Y-114676475D01*
X176273525Y-114546203D01*
X176171170Y-114393019D01*
X176100667Y-114222810D01*
X176064725Y-114042117D01*
X176064725Y-113857883D01*
X176100667Y-113677190D01*
X176171170Y-113506981D01*
X176273525Y-113353797D01*
X176403797Y-113223525D01*
X176556981Y-113121170D01*
X176727190Y-113050667D01*
X176907883Y-113014725D01*
X177092117Y-113014725D01*
X177272810Y-113050667D01*
G37*
G36*
X177272810Y-110510667D02*
G01*
X177443019Y-110581170D01*
X177596203Y-110683525D01*
X177726475Y-110813797D01*
X177828830Y-110966981D01*
X177899333Y-111137190D01*
X177935275Y-111317883D01*
X177935275Y-111502117D01*
X177899333Y-111682810D01*
X177828830Y-111853019D01*
X177726475Y-112006203D01*
X177596203Y-112136475D01*
X177443019Y-112238830D01*
X177272810Y-112309333D01*
X177092117Y-112345275D01*
X176907883Y-112345275D01*
X176727190Y-112309333D01*
X176556981Y-112238830D01*
X176403797Y-112136475D01*
X176273525Y-112006203D01*
X176171170Y-111853019D01*
X176100667Y-111682810D01*
X176064725Y-111502117D01*
X176064725Y-111317883D01*
X176100667Y-111137190D01*
X176171170Y-110966981D01*
X176273525Y-110813797D01*
X176403797Y-110683525D01*
X176556981Y-110581170D01*
X176727190Y-110510667D01*
X176907883Y-110474725D01*
X177092117Y-110474725D01*
X177272810Y-110510667D01*
G37*
G36*
X177272810Y-107970667D02*
G01*
X177443019Y-108041170D01*
X177596203Y-108143525D01*
X177726475Y-108273797D01*
X177828830Y-108426981D01*
X177899333Y-108597190D01*
X177935275Y-108777883D01*
X177935275Y-108962117D01*
X177899333Y-109142810D01*
X177828830Y-109313019D01*
X177726475Y-109466203D01*
X177596203Y-109596475D01*
X177443019Y-109698830D01*
X177272810Y-109769333D01*
X177092117Y-109805275D01*
X176907883Y-109805275D01*
X176727190Y-109769333D01*
X176556981Y-109698830D01*
X176403797Y-109596475D01*
X176273525Y-109466203D01*
X176171170Y-109313019D01*
X176100667Y-109142810D01*
X176064725Y-108962117D01*
X176064725Y-108777883D01*
X176100667Y-108597190D01*
X176171170Y-108426981D01*
X176273525Y-108273797D01*
X176403797Y-108143525D01*
X176556981Y-108041170D01*
X176727190Y-107970667D01*
X176907883Y-107934725D01*
X177092117Y-107934725D01*
X177272810Y-107970667D01*
G37*
G36*
X177272810Y-105430667D02*
G01*
X177443019Y-105501170D01*
X177596203Y-105603525D01*
X177726475Y-105733797D01*
X177828830Y-105886981D01*
X177899333Y-106057190D01*
X177935275Y-106237883D01*
X177935275Y-106422117D01*
X177899333Y-106602810D01*
X177828830Y-106773019D01*
X177726475Y-106926203D01*
X177596203Y-107056475D01*
X177443019Y-107158830D01*
X177272810Y-107229333D01*
X177092117Y-107265275D01*
X176907883Y-107265275D01*
X176727190Y-107229333D01*
X176556981Y-107158830D01*
X176403797Y-107056475D01*
X176273525Y-106926203D01*
X176171170Y-106773019D01*
X176100667Y-106602810D01*
X176064725Y-106422117D01*
X176064725Y-106237883D01*
X176100667Y-106057190D01*
X176171170Y-105886981D01*
X176273525Y-105733797D01*
X176403797Y-105603525D01*
X176556981Y-105501170D01*
X176727190Y-105430667D01*
X176907883Y-105394725D01*
X177092117Y-105394725D01*
X177272810Y-105430667D01*
G37*
G36*
X138618789Y-103104289D02*
G01*
X138629520Y-103104289D01*
X138682369Y-103112659D01*
X138822029Y-103131046D01*
X138856104Y-103140176D01*
X138885372Y-103144812D01*
X138941658Y-103163100D01*
X139030591Y-103186930D01*
X139087333Y-103210433D01*
X139131734Y-103224860D01*
X139173329Y-103246054D01*
X139230071Y-103269557D01*
X139309804Y-103315591D01*
X139362541Y-103342462D01*
X139386517Y-103359882D01*
X139417069Y-103377521D01*
X139528834Y-103463281D01*
X139572109Y-103494722D01*
X139579693Y-103502306D01*
X139588358Y-103508955D01*
X139741044Y-103661641D01*
X139747692Y-103670305D01*
X139755278Y-103677891D01*
X139786722Y-103721171D01*
X139872478Y-103832930D01*
X139890115Y-103863479D01*
X139907538Y-103887459D01*
X139934411Y-103940201D01*
X139980442Y-104019928D01*
X140003942Y-104076663D01*
X140025140Y-104118266D01*
X140039568Y-104162673D01*
X140063069Y-104219408D01*
X140086895Y-104308328D01*
X140105188Y-104364628D01*
X140109824Y-104393902D01*
X140118953Y-104427970D01*
X140137338Y-104567618D01*
X140145711Y-104620480D01*
X140145711Y-104631211D01*
X140147137Y-104642043D01*
X140147137Y-104857956D01*
X140145711Y-104868787D01*
X140145711Y-104879520D01*
X140137337Y-104932386D01*
X140118953Y-105072029D01*
X140109824Y-105106095D01*
X140105188Y-105135372D01*
X140086893Y-105191675D01*
X140063069Y-105280591D01*
X140039570Y-105337321D01*
X140025140Y-105381734D01*
X140003940Y-105423340D01*
X139980442Y-105480071D01*
X139934416Y-105559789D01*
X139907538Y-105612541D01*
X139890113Y-105636524D01*
X139872478Y-105667069D01*
X139786736Y-105778810D01*
X139755278Y-105822109D01*
X139747689Y-105829697D01*
X139741044Y-105838358D01*
X139588358Y-105991044D01*
X139579697Y-105997689D01*
X139572109Y-106005278D01*
X139528810Y-106036736D01*
X139417069Y-106122478D01*
X139386524Y-106140113D01*
X139362541Y-106157538D01*
X139309789Y-106184416D01*
X139230071Y-106230442D01*
X139173340Y-106253940D01*
X139131734Y-106275140D01*
X139087321Y-106289570D01*
X139030591Y-106313069D01*
X138941675Y-106336893D01*
X138885372Y-106355188D01*
X138856095Y-106359824D01*
X138822029Y-106368953D01*
X138682382Y-106387338D01*
X138629520Y-106395711D01*
X138618788Y-106395711D01*
X138607957Y-106397137D01*
X138392043Y-106397137D01*
X138381212Y-106395711D01*
X138370480Y-106395711D01*
X138317618Y-106387338D01*
X138177970Y-106368953D01*
X138143902Y-106359824D01*
X138114628Y-106355188D01*
X138058328Y-106336895D01*
X137969408Y-106313069D01*
X137912673Y-106289568D01*
X137868266Y-106275140D01*
X137826663Y-106253942D01*
X137769928Y-106230442D01*
X137690201Y-106184411D01*
X137637459Y-106157538D01*
X137613479Y-106140115D01*
X137582930Y-106122478D01*
X137471171Y-106036722D01*
X137427891Y-106005278D01*
X137420305Y-105997692D01*
X137411641Y-105991044D01*
X137258955Y-105838358D01*
X137252306Y-105829693D01*
X137244722Y-105822109D01*
X137213281Y-105778834D01*
X137127521Y-105667069D01*
X137109882Y-105636517D01*
X137092462Y-105612541D01*
X137065591Y-105559804D01*
X137019557Y-105480071D01*
X136996054Y-105423329D01*
X136974860Y-105381734D01*
X136960433Y-105337333D01*
X136936930Y-105280591D01*
X136913100Y-105191658D01*
X136894812Y-105135372D01*
X136890176Y-105106104D01*
X136881046Y-105072029D01*
X136862660Y-104932373D01*
X136854289Y-104879520D01*
X136854289Y-104868787D01*
X136852863Y-104857956D01*
X136852863Y-104642043D01*
X136854289Y-104631211D01*
X136854289Y-104620480D01*
X136862659Y-104567631D01*
X136881046Y-104427970D01*
X136890176Y-104393893D01*
X136894812Y-104364628D01*
X136913099Y-104308346D01*
X136936930Y-104219408D01*
X136960434Y-104162662D01*
X136974860Y-104118266D01*
X136996051Y-104076674D01*
X137019557Y-104019928D01*
X137065595Y-103940187D01*
X137092462Y-103887459D01*
X137109879Y-103863486D01*
X137127521Y-103832930D01*
X137213294Y-103721146D01*
X137244722Y-103677891D01*
X137252303Y-103670309D01*
X137258955Y-103661641D01*
X137411641Y-103508955D01*
X137420309Y-103502303D01*
X137427891Y-103494722D01*
X137471146Y-103463294D01*
X137582930Y-103377521D01*
X137613486Y-103359879D01*
X137637459Y-103342462D01*
X137690187Y-103315595D01*
X137769928Y-103269557D01*
X137826674Y-103246051D01*
X137868266Y-103224860D01*
X137912662Y-103210434D01*
X137969408Y-103186930D01*
X138058346Y-103163099D01*
X138114628Y-103144812D01*
X138143893Y-103140176D01*
X138177970Y-103131046D01*
X138317631Y-103112659D01*
X138370480Y-103104289D01*
X138381211Y-103104289D01*
X138392043Y-103102863D01*
X138607957Y-103102863D01*
X138618789Y-103104289D01*
G37*
G36*
X158938789Y-103104289D02*
G01*
X158949520Y-103104289D01*
X159002369Y-103112659D01*
X159142029Y-103131046D01*
X159176104Y-103140176D01*
X159205372Y-103144812D01*
X159261658Y-103163100D01*
X159350591Y-103186930D01*
X159407333Y-103210433D01*
X159451734Y-103224860D01*
X159493329Y-103246054D01*
X159550071Y-103269557D01*
X159629804Y-103315591D01*
X159682541Y-103342462D01*
X159706517Y-103359882D01*
X159737069Y-103377521D01*
X159848834Y-103463281D01*
X159892109Y-103494722D01*
X159899693Y-103502306D01*
X159908358Y-103508955D01*
X160061044Y-103661641D01*
X160067692Y-103670305D01*
X160075278Y-103677891D01*
X160106722Y-103721171D01*
X160192478Y-103832930D01*
X160210115Y-103863479D01*
X160227538Y-103887459D01*
X160254411Y-103940201D01*
X160300442Y-104019928D01*
X160323942Y-104076663D01*
X160345140Y-104118266D01*
X160359568Y-104162673D01*
X160383069Y-104219408D01*
X160406895Y-104308328D01*
X160425188Y-104364628D01*
X160429824Y-104393902D01*
X160438953Y-104427970D01*
X160457338Y-104567618D01*
X160465711Y-104620480D01*
X160465711Y-104631211D01*
X160467137Y-104642043D01*
X160467137Y-104857956D01*
X160465711Y-104868787D01*
X160465711Y-104879520D01*
X160457337Y-104932386D01*
X160438953Y-105072029D01*
X160429824Y-105106095D01*
X160425188Y-105135372D01*
X160406893Y-105191675D01*
X160383069Y-105280591D01*
X160359570Y-105337321D01*
X160345140Y-105381734D01*
X160323940Y-105423340D01*
X160300442Y-105480071D01*
X160254416Y-105559789D01*
X160227538Y-105612541D01*
X160210113Y-105636524D01*
X160192478Y-105667069D01*
X160106736Y-105778810D01*
X160075278Y-105822109D01*
X160067689Y-105829697D01*
X160061044Y-105838358D01*
X159908358Y-105991044D01*
X159899697Y-105997689D01*
X159892109Y-106005278D01*
X159848810Y-106036736D01*
X159737069Y-106122478D01*
X159706524Y-106140113D01*
X159682541Y-106157538D01*
X159629789Y-106184416D01*
X159550071Y-106230442D01*
X159493340Y-106253940D01*
X159451734Y-106275140D01*
X159407321Y-106289570D01*
X159350591Y-106313069D01*
X159261675Y-106336893D01*
X159205372Y-106355188D01*
X159176095Y-106359824D01*
X159142029Y-106368953D01*
X159002382Y-106387338D01*
X158949520Y-106395711D01*
X158938788Y-106395711D01*
X158927957Y-106397137D01*
X158712043Y-106397137D01*
X158701212Y-106395711D01*
X158690480Y-106395711D01*
X158637618Y-106387338D01*
X158497970Y-106368953D01*
X158463902Y-106359824D01*
X158434628Y-106355188D01*
X158378328Y-106336895D01*
X158289408Y-106313069D01*
X158232673Y-106289568D01*
X158188266Y-106275140D01*
X158146663Y-106253942D01*
X158089928Y-106230442D01*
X158010201Y-106184411D01*
X157957459Y-106157538D01*
X157933479Y-106140115D01*
X157902930Y-106122478D01*
X157791171Y-106036722D01*
X157747891Y-106005278D01*
X157740305Y-105997692D01*
X157731641Y-105991044D01*
X157578955Y-105838358D01*
X157572306Y-105829693D01*
X157564722Y-105822109D01*
X157533281Y-105778834D01*
X157447521Y-105667069D01*
X157429882Y-105636517D01*
X157412462Y-105612541D01*
X157385591Y-105559804D01*
X157339557Y-105480071D01*
X157316054Y-105423329D01*
X157294860Y-105381734D01*
X157280433Y-105337333D01*
X157256930Y-105280591D01*
X157233100Y-105191658D01*
X157214812Y-105135372D01*
X157210176Y-105106104D01*
X157201046Y-105072029D01*
X157182660Y-104932373D01*
X157174289Y-104879520D01*
X157174289Y-104868787D01*
X157172863Y-104857956D01*
X157172863Y-104642043D01*
X157174289Y-104631211D01*
X157174289Y-104620480D01*
X157182659Y-104567631D01*
X157201046Y-104427970D01*
X157210176Y-104393893D01*
X157214812Y-104364628D01*
X157233099Y-104308346D01*
X157256930Y-104219408D01*
X157280434Y-104162662D01*
X157294860Y-104118266D01*
X157316051Y-104076674D01*
X157339557Y-104019928D01*
X157385595Y-103940187D01*
X157412462Y-103887459D01*
X157429879Y-103863486D01*
X157447521Y-103832930D01*
X157533294Y-103721146D01*
X157564722Y-103677891D01*
X157572303Y-103670309D01*
X157578955Y-103661641D01*
X157731641Y-103508955D01*
X157740309Y-103502303D01*
X157747891Y-103494722D01*
X157791146Y-103463294D01*
X157902930Y-103377521D01*
X157933486Y-103359879D01*
X157957459Y-103342462D01*
X158010187Y-103315595D01*
X158089928Y-103269557D01*
X158146674Y-103246051D01*
X158188266Y-103224860D01*
X158232662Y-103210434D01*
X158289408Y-103186930D01*
X158378346Y-103163099D01*
X158434628Y-103144812D01*
X158463893Y-103140176D01*
X158497970Y-103131046D01*
X158637631Y-103112659D01*
X158690480Y-103104289D01*
X158701211Y-103104289D01*
X158712043Y-103102863D01*
X158927957Y-103102863D01*
X158938789Y-103104289D01*
G37*
G36*
X142568063Y-103899280D02*
G01*
X142729072Y-103965972D01*
X142873976Y-104062794D01*
X142997206Y-104186024D01*
X143094028Y-104330928D01*
X143160720Y-104491937D01*
X143194719Y-104662863D01*
X143194719Y-104837137D01*
X143160720Y-105008063D01*
X143094028Y-105169072D01*
X142997206Y-105313976D01*
X142873976Y-105437206D01*
X142729072Y-105534028D01*
X142568063Y-105600720D01*
X142397137Y-105634719D01*
X142222863Y-105634719D01*
X142051937Y-105600720D01*
X141890928Y-105534028D01*
X141746024Y-105437206D01*
X141622794Y-105313976D01*
X141525972Y-105169072D01*
X141459280Y-105008063D01*
X141425281Y-104837137D01*
X141425281Y-104662863D01*
X141459280Y-104491937D01*
X141525972Y-104330928D01*
X141622794Y-104186024D01*
X141746024Y-104062794D01*
X141890928Y-103965972D01*
X142051937Y-103899280D01*
X142222863Y-103865281D01*
X142397137Y-103865281D01*
X142568063Y-103899280D01*
G37*
G36*
X145108063Y-103899280D02*
G01*
X145269072Y-103965972D01*
X145413976Y-104062794D01*
X145537206Y-104186024D01*
X145634028Y-104330928D01*
X145700720Y-104491937D01*
X145734719Y-104662863D01*
X145734719Y-104837137D01*
X145700720Y-105008063D01*
X145634028Y-105169072D01*
X145537206Y-105313976D01*
X145413976Y-105437206D01*
X145269072Y-105534028D01*
X145108063Y-105600720D01*
X144937137Y-105634719D01*
X144762863Y-105634719D01*
X144591937Y-105600720D01*
X144430928Y-105534028D01*
X144286024Y-105437206D01*
X144162794Y-105313976D01*
X144065972Y-105169072D01*
X143999280Y-105008063D01*
X143965281Y-104837137D01*
X143965281Y-104662863D01*
X143999280Y-104491937D01*
X144065972Y-104330928D01*
X144162794Y-104186024D01*
X144286024Y-104062794D01*
X144430928Y-103965972D01*
X144591937Y-103899280D01*
X144762863Y-103865281D01*
X144937137Y-103865281D01*
X145108063Y-103899280D01*
G37*
G36*
X147648063Y-103899280D02*
G01*
X147809072Y-103965972D01*
X147953976Y-104062794D01*
X148077206Y-104186024D01*
X148174028Y-104330928D01*
X148240720Y-104491937D01*
X148274719Y-104662863D01*
X148274719Y-104837137D01*
X148240720Y-105008063D01*
X148174028Y-105169072D01*
X148077206Y-105313976D01*
X147953976Y-105437206D01*
X147809072Y-105534028D01*
X147648063Y-105600720D01*
X147477137Y-105634719D01*
X147302863Y-105634719D01*
X147131937Y-105600720D01*
X146970928Y-105534028D01*
X146826024Y-105437206D01*
X146702794Y-105313976D01*
X146605972Y-105169072D01*
X146539280Y-105008063D01*
X146505281Y-104837137D01*
X146505281Y-104662863D01*
X146539280Y-104491937D01*
X146605972Y-104330928D01*
X146702794Y-104186024D01*
X146826024Y-104062794D01*
X146970928Y-103965972D01*
X147131937Y-103899280D01*
X147302863Y-103865281D01*
X147477137Y-103865281D01*
X147648063Y-103899280D01*
G37*
G36*
X150188063Y-103899280D02*
G01*
X150349072Y-103965972D01*
X150493976Y-104062794D01*
X150617206Y-104186024D01*
X150714028Y-104330928D01*
X150780720Y-104491937D01*
X150814719Y-104662863D01*
X150814719Y-104837137D01*
X150780720Y-105008063D01*
X150714028Y-105169072D01*
X150617206Y-105313976D01*
X150493976Y-105437206D01*
X150349072Y-105534028D01*
X150188063Y-105600720D01*
X150017137Y-105634719D01*
X149842863Y-105634719D01*
X149671937Y-105600720D01*
X149510928Y-105534028D01*
X149366024Y-105437206D01*
X149242794Y-105313976D01*
X149145972Y-105169072D01*
X149079280Y-105008063D01*
X149045281Y-104837137D01*
X149045281Y-104662863D01*
X149079280Y-104491937D01*
X149145972Y-104330928D01*
X149242794Y-104186024D01*
X149366024Y-104062794D01*
X149510928Y-103965972D01*
X149671937Y-103899280D01*
X149842863Y-103865281D01*
X150017137Y-103865281D01*
X150188063Y-103899280D01*
G37*
G36*
X152728063Y-103899280D02*
G01*
X152889072Y-103965972D01*
X153033976Y-104062794D01*
X153157206Y-104186024D01*
X153254028Y-104330928D01*
X153320720Y-104491937D01*
X153354719Y-104662863D01*
X153354719Y-104837137D01*
X153320720Y-105008063D01*
X153254028Y-105169072D01*
X153157206Y-105313976D01*
X153033976Y-105437206D01*
X152889072Y-105534028D01*
X152728063Y-105600720D01*
X152557137Y-105634719D01*
X152382863Y-105634719D01*
X152211937Y-105600720D01*
X152050928Y-105534028D01*
X151906024Y-105437206D01*
X151782794Y-105313976D01*
X151685972Y-105169072D01*
X151619280Y-105008063D01*
X151585281Y-104837137D01*
X151585281Y-104662863D01*
X151619280Y-104491937D01*
X151685972Y-104330928D01*
X151782794Y-104186024D01*
X151906024Y-104062794D01*
X152050928Y-103965972D01*
X152211937Y-103899280D01*
X152382863Y-103865281D01*
X152557137Y-103865281D01*
X152728063Y-103899280D01*
G37*
G36*
X155268063Y-103899280D02*
G01*
X155429072Y-103965972D01*
X155573976Y-104062794D01*
X155697206Y-104186024D01*
X155794028Y-104330928D01*
X155860720Y-104491937D01*
X155894719Y-104662863D01*
X155894719Y-104837137D01*
X155860720Y-105008063D01*
X155794028Y-105169072D01*
X155697206Y-105313976D01*
X155573976Y-105437206D01*
X155429072Y-105534028D01*
X155268063Y-105600720D01*
X155097137Y-105634719D01*
X154922863Y-105634719D01*
X154751937Y-105600720D01*
X154590928Y-105534028D01*
X154446024Y-105437206D01*
X154322794Y-105313976D01*
X154225972Y-105169072D01*
X154159280Y-105008063D01*
X154125281Y-104837137D01*
X154125281Y-104662863D01*
X154159280Y-104491937D01*
X154225972Y-104330928D01*
X154322794Y-104186024D01*
X154446024Y-104062794D01*
X154590928Y-103965972D01*
X154751937Y-103899280D01*
X154922863Y-103865281D01*
X155097137Y-103865281D01*
X155268063Y-103899280D01*
G37*
G36*
X177272810Y-102890667D02*
G01*
X177443019Y-102961170D01*
X177596203Y-103063525D01*
X177726475Y-103193797D01*
X177828830Y-103346981D01*
X177899333Y-103517190D01*
X177935275Y-103697883D01*
X177935275Y-103882117D01*
X177899333Y-104062810D01*
X177828830Y-104233019D01*
X177726475Y-104386203D01*
X177596203Y-104516475D01*
X177443019Y-104618830D01*
X177272810Y-104689333D01*
X177092117Y-104725275D01*
X176907883Y-104725275D01*
X176727190Y-104689333D01*
X176556981Y-104618830D01*
X176403797Y-104516475D01*
X176273525Y-104386203D01*
X176171170Y-104233019D01*
X176100667Y-104062810D01*
X176064725Y-103882117D01*
X176064725Y-103697883D01*
X176100667Y-103517190D01*
X176171170Y-103346981D01*
X176273525Y-103193797D01*
X176403797Y-103063525D01*
X176556981Y-102961170D01*
X176727190Y-102890667D01*
X176907883Y-102854725D01*
X177092117Y-102854725D01*
X177272810Y-102890667D01*
G37*
G36*
X177272810Y-100350667D02*
G01*
X177443019Y-100421170D01*
X177596203Y-100523525D01*
X177726475Y-100653797D01*
X177828830Y-100806981D01*
X177899333Y-100977190D01*
X177935275Y-101157883D01*
X177935275Y-101342117D01*
X177899333Y-101522810D01*
X177828830Y-101693019D01*
X177726475Y-101846203D01*
X177596203Y-101976475D01*
X177443019Y-102078830D01*
X177272810Y-102149333D01*
X177092117Y-102185275D01*
X176907883Y-102185275D01*
X176727190Y-102149333D01*
X176556981Y-102078830D01*
X176403797Y-101976475D01*
X176273525Y-101846203D01*
X176171170Y-101693019D01*
X176100667Y-101522810D01*
X176064725Y-101342117D01*
X176064725Y-101157883D01*
X176100667Y-100977190D01*
X176171170Y-100806981D01*
X176273525Y-100653797D01*
X176403797Y-100523525D01*
X176556981Y-100421170D01*
X176727190Y-100350667D01*
X176907883Y-100314725D01*
X177092117Y-100314725D01*
X177272810Y-100350667D01*
G37*
G36*
X132953034Y-99261764D02*
G01*
X132986125Y-99283875D01*
X133008236Y-99316966D01*
X133016000Y-99356000D01*
X133016000Y-100864000D01*
X133008236Y-100903034D01*
X132986125Y-100936125D01*
X132953034Y-100958236D01*
X132914000Y-100966000D01*
X131406000Y-100966000D01*
X131366966Y-100958236D01*
X131333875Y-100936125D01*
X131311764Y-100903034D01*
X131304000Y-100864000D01*
X131304000Y-99356000D01*
X131311764Y-99316966D01*
X131333875Y-99283875D01*
X131366966Y-99261764D01*
X131406000Y-99254000D01*
X132914000Y-99254000D01*
X132953034Y-99261764D01*
G37*
G36*
X112088484Y-99290859D02*
G01*
X112243516Y-99355075D01*
X112383041Y-99448303D01*
X112501697Y-99566959D01*
X112594925Y-99706484D01*
X112659141Y-99861516D01*
X112691878Y-100026097D01*
X112691878Y-100193903D01*
X112659141Y-100358484D01*
X112594925Y-100513516D01*
X112501697Y-100653041D01*
X112383041Y-100771697D01*
X112243516Y-100864925D01*
X112088484Y-100929141D01*
X111923903Y-100961878D01*
X111756097Y-100961878D01*
X111591516Y-100929141D01*
X111436484Y-100864925D01*
X111296959Y-100771697D01*
X111178303Y-100653041D01*
X111085075Y-100513516D01*
X111020859Y-100358484D01*
X110988122Y-100193903D01*
X110988122Y-100026097D01*
X111020859Y-99861516D01*
X111085075Y-99706484D01*
X111178303Y-99566959D01*
X111296959Y-99448303D01*
X111436484Y-99355075D01*
X111591516Y-99290859D01*
X111756097Y-99258122D01*
X111923903Y-99258122D01*
X112088484Y-99290859D01*
G37*
G36*
X114628484Y-99290859D02*
G01*
X114783516Y-99355075D01*
X114923041Y-99448303D01*
X115041697Y-99566959D01*
X115134925Y-99706484D01*
X115199141Y-99861516D01*
X115231878Y-100026097D01*
X115231878Y-100193903D01*
X115199141Y-100358484D01*
X115134925Y-100513516D01*
X115041697Y-100653041D01*
X114923041Y-100771697D01*
X114783516Y-100864925D01*
X114628484Y-100929141D01*
X114463903Y-100961878D01*
X114296097Y-100961878D01*
X114131516Y-100929141D01*
X113976484Y-100864925D01*
X113836959Y-100771697D01*
X113718303Y-100653041D01*
X113625075Y-100513516D01*
X113560859Y-100358484D01*
X113528122Y-100193903D01*
X113528122Y-100026097D01*
X113560859Y-99861516D01*
X113625075Y-99706484D01*
X113718303Y-99566959D01*
X113836959Y-99448303D01*
X113976484Y-99355075D01*
X114131516Y-99290859D01*
X114296097Y-99258122D01*
X114463903Y-99258122D01*
X114628484Y-99290859D01*
G37*
G36*
X117168484Y-99290859D02*
G01*
X117323516Y-99355075D01*
X117463041Y-99448303D01*
X117581697Y-99566959D01*
X117674925Y-99706484D01*
X117739141Y-99861516D01*
X117771878Y-100026097D01*
X117771878Y-100193903D01*
X117739141Y-100358484D01*
X117674925Y-100513516D01*
X117581697Y-100653041D01*
X117463041Y-100771697D01*
X117323516Y-100864925D01*
X117168484Y-100929141D01*
X117003903Y-100961878D01*
X116836097Y-100961878D01*
X116671516Y-100929141D01*
X116516484Y-100864925D01*
X116376959Y-100771697D01*
X116258303Y-100653041D01*
X116165075Y-100513516D01*
X116100859Y-100358484D01*
X116068122Y-100193903D01*
X116068122Y-100026097D01*
X116100859Y-99861516D01*
X116165075Y-99706484D01*
X116258303Y-99566959D01*
X116376959Y-99448303D01*
X116516484Y-99355075D01*
X116671516Y-99290859D01*
X116836097Y-99258122D01*
X117003903Y-99258122D01*
X117168484Y-99290859D01*
G37*
G36*
X119708484Y-99290859D02*
G01*
X119863516Y-99355075D01*
X120003041Y-99448303D01*
X120121697Y-99566959D01*
X120214925Y-99706484D01*
X120279141Y-99861516D01*
X120311878Y-100026097D01*
X120311878Y-100193903D01*
X120279141Y-100358484D01*
X120214925Y-100513516D01*
X120121697Y-100653041D01*
X120003041Y-100771697D01*
X119863516Y-100864925D01*
X119708484Y-100929141D01*
X119543903Y-100961878D01*
X119376097Y-100961878D01*
X119211516Y-100929141D01*
X119056484Y-100864925D01*
X118916959Y-100771697D01*
X118798303Y-100653041D01*
X118705075Y-100513516D01*
X118640859Y-100358484D01*
X118608122Y-100193903D01*
X118608122Y-100026097D01*
X118640859Y-99861516D01*
X118705075Y-99706484D01*
X118798303Y-99566959D01*
X118916959Y-99448303D01*
X119056484Y-99355075D01*
X119211516Y-99290859D01*
X119376097Y-99258122D01*
X119543903Y-99258122D01*
X119708484Y-99290859D01*
G37*
G36*
X122248484Y-99290859D02*
G01*
X122403516Y-99355075D01*
X122543041Y-99448303D01*
X122661697Y-99566959D01*
X122754925Y-99706484D01*
X122819141Y-99861516D01*
X122851878Y-100026097D01*
X122851878Y-100193903D01*
X122819141Y-100358484D01*
X122754925Y-100513516D01*
X122661697Y-100653041D01*
X122543041Y-100771697D01*
X122403516Y-100864925D01*
X122248484Y-100929141D01*
X122083903Y-100961878D01*
X121916097Y-100961878D01*
X121751516Y-100929141D01*
X121596484Y-100864925D01*
X121456959Y-100771697D01*
X121338303Y-100653041D01*
X121245075Y-100513516D01*
X121180859Y-100358484D01*
X121148122Y-100193903D01*
X121148122Y-100026097D01*
X121180859Y-99861516D01*
X121245075Y-99706484D01*
X121338303Y-99566959D01*
X121456959Y-99448303D01*
X121596484Y-99355075D01*
X121751516Y-99290859D01*
X121916097Y-99258122D01*
X122083903Y-99258122D01*
X122248484Y-99290859D01*
G37*
G36*
X124788484Y-99290859D02*
G01*
X124943516Y-99355075D01*
X125083041Y-99448303D01*
X125201697Y-99566959D01*
X125294925Y-99706484D01*
X125359141Y-99861516D01*
X125391878Y-100026097D01*
X125391878Y-100193903D01*
X125359141Y-100358484D01*
X125294925Y-100513516D01*
X125201697Y-100653041D01*
X125083041Y-100771697D01*
X124943516Y-100864925D01*
X124788484Y-100929141D01*
X124623903Y-100961878D01*
X124456097Y-100961878D01*
X124291516Y-100929141D01*
X124136484Y-100864925D01*
X123996959Y-100771697D01*
X123878303Y-100653041D01*
X123785075Y-100513516D01*
X123720859Y-100358484D01*
X123688122Y-100193903D01*
X123688122Y-100026097D01*
X123720859Y-99861516D01*
X123785075Y-99706484D01*
X123878303Y-99566959D01*
X123996959Y-99448303D01*
X124136484Y-99355075D01*
X124291516Y-99290859D01*
X124456097Y-99258122D01*
X124623903Y-99258122D01*
X124788484Y-99290859D01*
G37*
G36*
X127328484Y-99290859D02*
G01*
X127483516Y-99355075D01*
X127623041Y-99448303D01*
X127741697Y-99566959D01*
X127834925Y-99706484D01*
X127899141Y-99861516D01*
X127931878Y-100026097D01*
X127931878Y-100193903D01*
X127899141Y-100358484D01*
X127834925Y-100513516D01*
X127741697Y-100653041D01*
X127623041Y-100771697D01*
X127483516Y-100864925D01*
X127328484Y-100929141D01*
X127163903Y-100961878D01*
X126996097Y-100961878D01*
X126831516Y-100929141D01*
X126676484Y-100864925D01*
X126536959Y-100771697D01*
X126418303Y-100653041D01*
X126325075Y-100513516D01*
X126260859Y-100358484D01*
X126228122Y-100193903D01*
X126228122Y-100026097D01*
X126260859Y-99861516D01*
X126325075Y-99706484D01*
X126418303Y-99566959D01*
X126536959Y-99448303D01*
X126676484Y-99355075D01*
X126831516Y-99290859D01*
X126996097Y-99258122D01*
X127163903Y-99258122D01*
X127328484Y-99290859D01*
G37*
G36*
X129868484Y-99290859D02*
G01*
X130023516Y-99355075D01*
X130163041Y-99448303D01*
X130281697Y-99566959D01*
X130374925Y-99706484D01*
X130439141Y-99861516D01*
X130471878Y-100026097D01*
X130471878Y-100193903D01*
X130439141Y-100358484D01*
X130374925Y-100513516D01*
X130281697Y-100653041D01*
X130163041Y-100771697D01*
X130023516Y-100864925D01*
X129868484Y-100929141D01*
X129703903Y-100961878D01*
X129536097Y-100961878D01*
X129371516Y-100929141D01*
X129216484Y-100864925D01*
X129076959Y-100771697D01*
X128958303Y-100653041D01*
X128865075Y-100513516D01*
X128800859Y-100358484D01*
X128768122Y-100193903D01*
X128768122Y-100026097D01*
X128800859Y-99861516D01*
X128865075Y-99706484D01*
X128958303Y-99566959D01*
X129076959Y-99448303D01*
X129216484Y-99355075D01*
X129371516Y-99290859D01*
X129536097Y-99258122D01*
X129703903Y-99258122D01*
X129868484Y-99290859D01*
G37*
G36*
X164418789Y-97064289D02*
G01*
X164429520Y-97064289D01*
X164482369Y-97072659D01*
X164622029Y-97091046D01*
X164656104Y-97100176D01*
X164685372Y-97104812D01*
X164741658Y-97123100D01*
X164830591Y-97146930D01*
X164887333Y-97170433D01*
X164931734Y-97184860D01*
X164973329Y-97206054D01*
X165030071Y-97229557D01*
X165109804Y-97275591D01*
X165162541Y-97302462D01*
X165186517Y-97319882D01*
X165217069Y-97337521D01*
X165328834Y-97423281D01*
X165372109Y-97454722D01*
X165379693Y-97462306D01*
X165388358Y-97468955D01*
X165541044Y-97621641D01*
X165547692Y-97630305D01*
X165555278Y-97637891D01*
X165586722Y-97681171D01*
X165672478Y-97792930D01*
X165690115Y-97823479D01*
X165707538Y-97847459D01*
X165734411Y-97900201D01*
X165780442Y-97979928D01*
X165803942Y-98036663D01*
X165825140Y-98078266D01*
X165839568Y-98122673D01*
X165863069Y-98179408D01*
X165886895Y-98268328D01*
X165905188Y-98324628D01*
X165909824Y-98353902D01*
X165918953Y-98387970D01*
X165937338Y-98527618D01*
X165945711Y-98580480D01*
X165945711Y-98591211D01*
X165947137Y-98602043D01*
X165947137Y-98817956D01*
X165945711Y-98828787D01*
X165945711Y-98839520D01*
X165937337Y-98892386D01*
X165918953Y-99032029D01*
X165909824Y-99066095D01*
X165905188Y-99095372D01*
X165886893Y-99151675D01*
X165863069Y-99240591D01*
X165839570Y-99297321D01*
X165825140Y-99341734D01*
X165803940Y-99383340D01*
X165780442Y-99440071D01*
X165734416Y-99519789D01*
X165707538Y-99572541D01*
X165690113Y-99596524D01*
X165672478Y-99627069D01*
X165586736Y-99738810D01*
X165555278Y-99782109D01*
X165547689Y-99789697D01*
X165541044Y-99798358D01*
X165388358Y-99951044D01*
X165379697Y-99957689D01*
X165372109Y-99965278D01*
X165328810Y-99996736D01*
X165217069Y-100082478D01*
X165186524Y-100100113D01*
X165162541Y-100117538D01*
X165109789Y-100144416D01*
X165030071Y-100190442D01*
X164973340Y-100213940D01*
X164931734Y-100235140D01*
X164887321Y-100249570D01*
X164830591Y-100273069D01*
X164741675Y-100296893D01*
X164685372Y-100315188D01*
X164656095Y-100319824D01*
X164622029Y-100328953D01*
X164482382Y-100347338D01*
X164429520Y-100355711D01*
X164418788Y-100355711D01*
X164407957Y-100357137D01*
X164192043Y-100357137D01*
X164181212Y-100355711D01*
X164170480Y-100355711D01*
X164117618Y-100347338D01*
X163977970Y-100328953D01*
X163943902Y-100319824D01*
X163914628Y-100315188D01*
X163858328Y-100296895D01*
X163769408Y-100273069D01*
X163712673Y-100249568D01*
X163668266Y-100235140D01*
X163626663Y-100213942D01*
X163569928Y-100190442D01*
X163490201Y-100144411D01*
X163437459Y-100117538D01*
X163413479Y-100100115D01*
X163382930Y-100082478D01*
X163271171Y-99996722D01*
X163227891Y-99965278D01*
X163220305Y-99957692D01*
X163211641Y-99951044D01*
X163058955Y-99798358D01*
X163052306Y-99789693D01*
X163044722Y-99782109D01*
X163013281Y-99738834D01*
X162927521Y-99627069D01*
X162909882Y-99596517D01*
X162892462Y-99572541D01*
X162865591Y-99519804D01*
X162819557Y-99440071D01*
X162796054Y-99383329D01*
X162774860Y-99341734D01*
X162760433Y-99297333D01*
X162736930Y-99240591D01*
X162713100Y-99151658D01*
X162694812Y-99095372D01*
X162690176Y-99066104D01*
X162681046Y-99032029D01*
X162662660Y-98892373D01*
X162654289Y-98839520D01*
X162654289Y-98828787D01*
X162652863Y-98817956D01*
X162652863Y-98602043D01*
X162654289Y-98591211D01*
X162654289Y-98580480D01*
X162662659Y-98527631D01*
X162681046Y-98387970D01*
X162690176Y-98353893D01*
X162694812Y-98324628D01*
X162713099Y-98268346D01*
X162736930Y-98179408D01*
X162760434Y-98122662D01*
X162774860Y-98078266D01*
X162796051Y-98036674D01*
X162819557Y-97979928D01*
X162865595Y-97900187D01*
X162892462Y-97847459D01*
X162909879Y-97823486D01*
X162927521Y-97792930D01*
X163013294Y-97681146D01*
X163044722Y-97637891D01*
X163052303Y-97630309D01*
X163058955Y-97621641D01*
X163211641Y-97468955D01*
X163220309Y-97462303D01*
X163227891Y-97454722D01*
X163271146Y-97423294D01*
X163382930Y-97337521D01*
X163413486Y-97319879D01*
X163437459Y-97302462D01*
X163490187Y-97275595D01*
X163569928Y-97229557D01*
X163626674Y-97206051D01*
X163668266Y-97184860D01*
X163712662Y-97170434D01*
X163769408Y-97146930D01*
X163858346Y-97123099D01*
X163914628Y-97104812D01*
X163943893Y-97100176D01*
X163977970Y-97091046D01*
X164117631Y-97072659D01*
X164170480Y-97064289D01*
X164181211Y-97064289D01*
X164192043Y-97062863D01*
X164407957Y-97062863D01*
X164418789Y-97064289D01*
G37*
G36*
X177296476Y-97475090D02*
G01*
X177486008Y-97536673D01*
X177663573Y-97627147D01*
X177824799Y-97744284D01*
X177965716Y-97885201D01*
X178082853Y-98046427D01*
X178173327Y-98223992D01*
X178234910Y-98413524D01*
X178266085Y-98610357D01*
X178266085Y-98809643D01*
X178234910Y-99006476D01*
X178173327Y-99196008D01*
X178082853Y-99373573D01*
X177965716Y-99534799D01*
X177824799Y-99675716D01*
X177663573Y-99792853D01*
X177486008Y-99883327D01*
X177296476Y-99944910D01*
X177099643Y-99976085D01*
X176900357Y-99976085D01*
X176703524Y-99944910D01*
X176513992Y-99883327D01*
X176336427Y-99792853D01*
X176175201Y-99675716D01*
X176034284Y-99534799D01*
X175917147Y-99373573D01*
X175826673Y-99196008D01*
X175765090Y-99006476D01*
X175733915Y-98809643D01*
X175733915Y-98610357D01*
X175765090Y-98413524D01*
X175826673Y-98223992D01*
X175917147Y-98046427D01*
X176034284Y-97885201D01*
X176175201Y-97744284D01*
X176336427Y-97627147D01*
X176513992Y-97536673D01*
X176703524Y-97475090D01*
X176900357Y-97443915D01*
X177099643Y-97443915D01*
X177296476Y-97475090D01*
G37*
G36*
X111000000Y-94500000D02*
G01*
X109400000Y-94500000D01*
X109400000Y-92900000D01*
X111000000Y-92900000D01*
X111000000Y-94500000D01*
G37*
G36*
X112972228Y-92934448D02*
G01*
X113117117Y-92994463D01*
X113247515Y-93081592D01*
X113358408Y-93192485D01*
X113445537Y-93322883D01*
X113505552Y-93467772D01*
X113536148Y-93621586D01*
X113536148Y-93778414D01*
X113505552Y-93932228D01*
X113445537Y-94077117D01*
X113358408Y-94207515D01*
X113247515Y-94318408D01*
X113117117Y-94405537D01*
X112972228Y-94465552D01*
X112818414Y-94496148D01*
X112661586Y-94496148D01*
X112507772Y-94465552D01*
X112362883Y-94405537D01*
X112232485Y-94318408D01*
X112121592Y-94207515D01*
X112034463Y-94077117D01*
X111974448Y-93932228D01*
X111943852Y-93778414D01*
X111943852Y-93621586D01*
X111974448Y-93467772D01*
X112034463Y-93322883D01*
X112121592Y-93192485D01*
X112232485Y-93081592D01*
X112362883Y-92994463D01*
X112507772Y-92934448D01*
X112661586Y-92903852D01*
X112818414Y-92903852D01*
X112972228Y-92934448D01*
G37*
G36*
X115512228Y-92934448D02*
G01*
X115657117Y-92994463D01*
X115787515Y-93081592D01*
X115898408Y-93192485D01*
X115985537Y-93322883D01*
X116045552Y-93467772D01*
X116076148Y-93621586D01*
X116076148Y-93778414D01*
X116045552Y-93932228D01*
X115985537Y-94077117D01*
X115898408Y-94207515D01*
X115787515Y-94318408D01*
X115657117Y-94405537D01*
X115512228Y-94465552D01*
X115358414Y-94496148D01*
X115201586Y-94496148D01*
X115047772Y-94465552D01*
X114902883Y-94405537D01*
X114772485Y-94318408D01*
X114661592Y-94207515D01*
X114574463Y-94077117D01*
X114514448Y-93932228D01*
X114483852Y-93778414D01*
X114483852Y-93621586D01*
X114514448Y-93467772D01*
X114574463Y-93322883D01*
X114661592Y-93192485D01*
X114772485Y-93081592D01*
X114902883Y-92994463D01*
X115047772Y-92934448D01*
X115201586Y-92903852D01*
X115358414Y-92903852D01*
X115512228Y-92934448D01*
G37*
G36*
X118052228Y-92934448D02*
G01*
X118197117Y-92994463D01*
X118327515Y-93081592D01*
X118438408Y-93192485D01*
X118525537Y-93322883D01*
X118585552Y-93467772D01*
X118616148Y-93621586D01*
X118616148Y-93778414D01*
X118585552Y-93932228D01*
X118525537Y-94077117D01*
X118438408Y-94207515D01*
X118327515Y-94318408D01*
X118197117Y-94405537D01*
X118052228Y-94465552D01*
X117898414Y-94496148D01*
X117741586Y-94496148D01*
X117587772Y-94465552D01*
X117442883Y-94405537D01*
X117312485Y-94318408D01*
X117201592Y-94207515D01*
X117114463Y-94077117D01*
X117054448Y-93932228D01*
X117023852Y-93778414D01*
X117023852Y-93621586D01*
X117054448Y-93467772D01*
X117114463Y-93322883D01*
X117201592Y-93192485D01*
X117312485Y-93081592D01*
X117442883Y-92994463D01*
X117587772Y-92934448D01*
X117741586Y-92903852D01*
X117898414Y-92903852D01*
X118052228Y-92934448D01*
G37*
G36*
X120592228Y-92934448D02*
G01*
X120737117Y-92994463D01*
X120867515Y-93081592D01*
X120978408Y-93192485D01*
X121065537Y-93322883D01*
X121125552Y-93467772D01*
X121156148Y-93621586D01*
X121156148Y-93778414D01*
X121125552Y-93932228D01*
X121065537Y-94077117D01*
X120978408Y-94207515D01*
X120867515Y-94318408D01*
X120737117Y-94405537D01*
X120592228Y-94465552D01*
X120438414Y-94496148D01*
X120281586Y-94496148D01*
X120127772Y-94465552D01*
X119982883Y-94405537D01*
X119852485Y-94318408D01*
X119741592Y-94207515D01*
X119654463Y-94077117D01*
X119594448Y-93932228D01*
X119563852Y-93778414D01*
X119563852Y-93621586D01*
X119594448Y-93467772D01*
X119654463Y-93322883D01*
X119741592Y-93192485D01*
X119852485Y-93081592D01*
X119982883Y-92994463D01*
X120127772Y-92934448D01*
X120281586Y-92903852D01*
X120438414Y-92903852D01*
X120592228Y-92934448D01*
G37*
G36*
X123132228Y-92934448D02*
G01*
X123277117Y-92994463D01*
X123407515Y-93081592D01*
X123518408Y-93192485D01*
X123605537Y-93322883D01*
X123665552Y-93467772D01*
X123696148Y-93621586D01*
X123696148Y-93778414D01*
X123665552Y-93932228D01*
X123605537Y-94077117D01*
X123518408Y-94207515D01*
X123407515Y-94318408D01*
X123277117Y-94405537D01*
X123132228Y-94465552D01*
X122978414Y-94496148D01*
X122821586Y-94496148D01*
X122667772Y-94465552D01*
X122522883Y-94405537D01*
X122392485Y-94318408D01*
X122281592Y-94207515D01*
X122194463Y-94077117D01*
X122134448Y-93932228D01*
X122103852Y-93778414D01*
X122103852Y-93621586D01*
X122134448Y-93467772D01*
X122194463Y-93322883D01*
X122281592Y-93192485D01*
X122392485Y-93081592D01*
X122522883Y-92994463D01*
X122667772Y-92934448D01*
X122821586Y-92903852D01*
X122978414Y-92903852D01*
X123132228Y-92934448D01*
G37*
G36*
X125672228Y-92934448D02*
G01*
X125817117Y-92994463D01*
X125947515Y-93081592D01*
X126058408Y-93192485D01*
X126145537Y-93322883D01*
X126205552Y-93467772D01*
X126236148Y-93621586D01*
X126236148Y-93778414D01*
X126205552Y-93932228D01*
X126145537Y-94077117D01*
X126058408Y-94207515D01*
X125947515Y-94318408D01*
X125817117Y-94405537D01*
X125672228Y-94465552D01*
X125518414Y-94496148D01*
X125361586Y-94496148D01*
X125207772Y-94465552D01*
X125062883Y-94405537D01*
X124932485Y-94318408D01*
X124821592Y-94207515D01*
X124734463Y-94077117D01*
X124674448Y-93932228D01*
X124643852Y-93778414D01*
X124643852Y-93621586D01*
X124674448Y-93467772D01*
X124734463Y-93322883D01*
X124821592Y-93192485D01*
X124932485Y-93081592D01*
X125062883Y-92994463D01*
X125207772Y-92934448D01*
X125361586Y-92903852D01*
X125518414Y-92903852D01*
X125672228Y-92934448D01*
G37*
G36*
X128212228Y-92934448D02*
G01*
X128357117Y-92994463D01*
X128487515Y-93081592D01*
X128598408Y-93192485D01*
X128685537Y-93322883D01*
X128745552Y-93467772D01*
X128776148Y-93621586D01*
X128776148Y-93778414D01*
X128745552Y-93932228D01*
X128685537Y-94077117D01*
X128598408Y-94207515D01*
X128487515Y-94318408D01*
X128357117Y-94405537D01*
X128212228Y-94465552D01*
X128058414Y-94496148D01*
X127901586Y-94496148D01*
X127747772Y-94465552D01*
X127602883Y-94405537D01*
X127472485Y-94318408D01*
X127361592Y-94207515D01*
X127274463Y-94077117D01*
X127214448Y-93932228D01*
X127183852Y-93778414D01*
X127183852Y-93621586D01*
X127214448Y-93467772D01*
X127274463Y-93322883D01*
X127361592Y-93192485D01*
X127472485Y-93081592D01*
X127602883Y-92994463D01*
X127747772Y-92934448D01*
X127901586Y-92903852D01*
X128058414Y-92903852D01*
X128212228Y-92934448D01*
G37*
G36*
X130752228Y-92934448D02*
G01*
X130897117Y-92994463D01*
X131027515Y-93081592D01*
X131138408Y-93192485D01*
X131225537Y-93322883D01*
X131285552Y-93467772D01*
X131316148Y-93621586D01*
X131316148Y-93778414D01*
X131285552Y-93932228D01*
X131225537Y-94077117D01*
X131138408Y-94207515D01*
X131027515Y-94318408D01*
X130897117Y-94405537D01*
X130752228Y-94465552D01*
X130598414Y-94496148D01*
X130441586Y-94496148D01*
X130287772Y-94465552D01*
X130142883Y-94405537D01*
X130012485Y-94318408D01*
X129901592Y-94207515D01*
X129814463Y-94077117D01*
X129754448Y-93932228D01*
X129723852Y-93778414D01*
X129723852Y-93621586D01*
X129754448Y-93467772D01*
X129814463Y-93322883D01*
X129901592Y-93192485D01*
X130012485Y-93081592D01*
X130142883Y-92994463D01*
X130287772Y-92934448D01*
X130441586Y-92903852D01*
X130598414Y-92903852D01*
X130752228Y-92934448D01*
G37*
G36*
X133292228Y-92934448D02*
G01*
X133437117Y-92994463D01*
X133567515Y-93081592D01*
X133678408Y-93192485D01*
X133765537Y-93322883D01*
X133825552Y-93467772D01*
X133856148Y-93621586D01*
X133856148Y-93778414D01*
X133825552Y-93932228D01*
X133765537Y-94077117D01*
X133678408Y-94207515D01*
X133567515Y-94318408D01*
X133437117Y-94405537D01*
X133292228Y-94465552D01*
X133138414Y-94496148D01*
X132981586Y-94496148D01*
X132827772Y-94465552D01*
X132682883Y-94405537D01*
X132552485Y-94318408D01*
X132441592Y-94207515D01*
X132354463Y-94077117D01*
X132294448Y-93932228D01*
X132263852Y-93778414D01*
X132263852Y-93621586D01*
X132294448Y-93467772D01*
X132354463Y-93322883D01*
X132441592Y-93192485D01*
X132552485Y-93081592D01*
X132682883Y-92994463D01*
X132827772Y-92934448D01*
X132981586Y-92903852D01*
X133138414Y-92903852D01*
X133292228Y-92934448D01*
G37*
G36*
X135832228Y-92934448D02*
G01*
X135977117Y-92994463D01*
X136107515Y-93081592D01*
X136218408Y-93192485D01*
X136305537Y-93322883D01*
X136365552Y-93467772D01*
X136396148Y-93621586D01*
X136396148Y-93778414D01*
X136365552Y-93932228D01*
X136305537Y-94077117D01*
X136218408Y-94207515D01*
X136107515Y-94318408D01*
X135977117Y-94405537D01*
X135832228Y-94465552D01*
X135678414Y-94496148D01*
X135521586Y-94496148D01*
X135367772Y-94465552D01*
X135222883Y-94405537D01*
X135092485Y-94318408D01*
X134981592Y-94207515D01*
X134894463Y-94077117D01*
X134834448Y-93932228D01*
X134803852Y-93778414D01*
X134803852Y-93621586D01*
X134834448Y-93467772D01*
X134894463Y-93322883D01*
X134981592Y-93192485D01*
X135092485Y-93081592D01*
X135222883Y-92994463D01*
X135367772Y-92934448D01*
X135521586Y-92903852D01*
X135678414Y-92903852D01*
X135832228Y-92934448D01*
G37*
G36*
X138372228Y-92934448D02*
G01*
X138517117Y-92994463D01*
X138647515Y-93081592D01*
X138758408Y-93192485D01*
X138845537Y-93322883D01*
X138905552Y-93467772D01*
X138936148Y-93621586D01*
X138936148Y-93778414D01*
X138905552Y-93932228D01*
X138845537Y-94077117D01*
X138758408Y-94207515D01*
X138647515Y-94318408D01*
X138517117Y-94405537D01*
X138372228Y-94465552D01*
X138218414Y-94496148D01*
X138061586Y-94496148D01*
X137907772Y-94465552D01*
X137762883Y-94405537D01*
X137632485Y-94318408D01*
X137521592Y-94207515D01*
X137434463Y-94077117D01*
X137374448Y-93932228D01*
X137343852Y-93778414D01*
X137343852Y-93621586D01*
X137374448Y-93467772D01*
X137434463Y-93322883D01*
X137521592Y-93192485D01*
X137632485Y-93081592D01*
X137762883Y-92994463D01*
X137907772Y-92934448D01*
X138061586Y-92903852D01*
X138218414Y-92903852D01*
X138372228Y-92934448D01*
G37*
G36*
X140912228Y-92934448D02*
G01*
X141057117Y-92994463D01*
X141187515Y-93081592D01*
X141298408Y-93192485D01*
X141385537Y-93322883D01*
X141445552Y-93467772D01*
X141476148Y-93621586D01*
X141476148Y-93778414D01*
X141445552Y-93932228D01*
X141385537Y-94077117D01*
X141298408Y-94207515D01*
X141187515Y-94318408D01*
X141057117Y-94405537D01*
X140912228Y-94465552D01*
X140758414Y-94496148D01*
X140601586Y-94496148D01*
X140447772Y-94465552D01*
X140302883Y-94405537D01*
X140172485Y-94318408D01*
X140061592Y-94207515D01*
X139974463Y-94077117D01*
X139914448Y-93932228D01*
X139883852Y-93778414D01*
X139883852Y-93621586D01*
X139914448Y-93467772D01*
X139974463Y-93322883D01*
X140061592Y-93192485D01*
X140172485Y-93081592D01*
X140302883Y-92994463D01*
X140447772Y-92934448D01*
X140601586Y-92903852D01*
X140758414Y-92903852D01*
X140912228Y-92934448D01*
G37*
G36*
X143452228Y-92934448D02*
G01*
X143597117Y-92994463D01*
X143727515Y-93081592D01*
X143838408Y-93192485D01*
X143925537Y-93322883D01*
X143985552Y-93467772D01*
X144016148Y-93621586D01*
X144016148Y-93778414D01*
X143985552Y-93932228D01*
X143925537Y-94077117D01*
X143838408Y-94207515D01*
X143727515Y-94318408D01*
X143597117Y-94405537D01*
X143452228Y-94465552D01*
X143298414Y-94496148D01*
X143141586Y-94496148D01*
X142987772Y-94465552D01*
X142842883Y-94405537D01*
X142712485Y-94318408D01*
X142601592Y-94207515D01*
X142514463Y-94077117D01*
X142454448Y-93932228D01*
X142423852Y-93778414D01*
X142423852Y-93621586D01*
X142454448Y-93467772D01*
X142514463Y-93322883D01*
X142601592Y-93192485D01*
X142712485Y-93081592D01*
X142842883Y-92994463D01*
X142987772Y-92934448D01*
X143141586Y-92903852D01*
X143298414Y-92903852D01*
X143452228Y-92934448D01*
G37*
G36*
X145992228Y-92934448D02*
G01*
X146137117Y-92994463D01*
X146267515Y-93081592D01*
X146378408Y-93192485D01*
X146465537Y-93322883D01*
X146525552Y-93467772D01*
X146556148Y-93621586D01*
X146556148Y-93778414D01*
X146525552Y-93932228D01*
X146465537Y-94077117D01*
X146378408Y-94207515D01*
X146267515Y-94318408D01*
X146137117Y-94405537D01*
X145992228Y-94465552D01*
X145838414Y-94496148D01*
X145681586Y-94496148D01*
X145527772Y-94465552D01*
X145382883Y-94405537D01*
X145252485Y-94318408D01*
X145141592Y-94207515D01*
X145054463Y-94077117D01*
X144994448Y-93932228D01*
X144963852Y-93778414D01*
X144963852Y-93621586D01*
X144994448Y-93467772D01*
X145054463Y-93322883D01*
X145141592Y-93192485D01*
X145252485Y-93081592D01*
X145382883Y-92994463D01*
X145527772Y-92934448D01*
X145681586Y-92903852D01*
X145838414Y-92903852D01*
X145992228Y-92934448D01*
G37*
G36*
X148532228Y-92934448D02*
G01*
X148677117Y-92994463D01*
X148807515Y-93081592D01*
X148918408Y-93192485D01*
X149005537Y-93322883D01*
X149065552Y-93467772D01*
X149096148Y-93621586D01*
X149096148Y-93778414D01*
X149065552Y-93932228D01*
X149005537Y-94077117D01*
X148918408Y-94207515D01*
X148807515Y-94318408D01*
X148677117Y-94405537D01*
X148532228Y-94465552D01*
X148378414Y-94496148D01*
X148221586Y-94496148D01*
X148067772Y-94465552D01*
X147922883Y-94405537D01*
X147792485Y-94318408D01*
X147681592Y-94207515D01*
X147594463Y-94077117D01*
X147534448Y-93932228D01*
X147503852Y-93778414D01*
X147503852Y-93621586D01*
X147534448Y-93467772D01*
X147594463Y-93322883D01*
X147681592Y-93192485D01*
X147792485Y-93081592D01*
X147922883Y-92994463D01*
X148067772Y-92934448D01*
X148221586Y-92903852D01*
X148378414Y-92903852D01*
X148532228Y-92934448D01*
G37*
G36*
X151072228Y-92934448D02*
G01*
X151217117Y-92994463D01*
X151347515Y-93081592D01*
X151458408Y-93192485D01*
X151545537Y-93322883D01*
X151605552Y-93467772D01*
X151636148Y-93621586D01*
X151636148Y-93778414D01*
X151605552Y-93932228D01*
X151545537Y-94077117D01*
X151458408Y-94207515D01*
X151347515Y-94318408D01*
X151217117Y-94405537D01*
X151072228Y-94465552D01*
X150918414Y-94496148D01*
X150761586Y-94496148D01*
X150607772Y-94465552D01*
X150462883Y-94405537D01*
X150332485Y-94318408D01*
X150221592Y-94207515D01*
X150134463Y-94077117D01*
X150074448Y-93932228D01*
X150043852Y-93778414D01*
X150043852Y-93621586D01*
X150074448Y-93467772D01*
X150134463Y-93322883D01*
X150221592Y-93192485D01*
X150332485Y-93081592D01*
X150462883Y-92994463D01*
X150607772Y-92934448D01*
X150761586Y-92903852D01*
X150918414Y-92903852D01*
X151072228Y-92934448D01*
G37*
G36*
X153612228Y-92934448D02*
G01*
X153757117Y-92994463D01*
X153887515Y-93081592D01*
X153998408Y-93192485D01*
X154085537Y-93322883D01*
X154145552Y-93467772D01*
X154176148Y-93621586D01*
X154176148Y-93778414D01*
X154145552Y-93932228D01*
X154085537Y-94077117D01*
X153998408Y-94207515D01*
X153887515Y-94318408D01*
X153757117Y-94405537D01*
X153612228Y-94465552D01*
X153458414Y-94496148D01*
X153301586Y-94496148D01*
X153147772Y-94465552D01*
X153002883Y-94405537D01*
X152872485Y-94318408D01*
X152761592Y-94207515D01*
X152674463Y-94077117D01*
X152614448Y-93932228D01*
X152583852Y-93778414D01*
X152583852Y-93621586D01*
X152614448Y-93467772D01*
X152674463Y-93322883D01*
X152761592Y-93192485D01*
X152872485Y-93081592D01*
X153002883Y-92994463D01*
X153147772Y-92934448D01*
X153301586Y-92903852D01*
X153458414Y-92903852D01*
X153612228Y-92934448D01*
G37*
G36*
X156152228Y-92934448D02*
G01*
X156297117Y-92994463D01*
X156427515Y-93081592D01*
X156538408Y-93192485D01*
X156625537Y-93322883D01*
X156685552Y-93467772D01*
X156716148Y-93621586D01*
X156716148Y-93778414D01*
X156685552Y-93932228D01*
X156625537Y-94077117D01*
X156538408Y-94207515D01*
X156427515Y-94318408D01*
X156297117Y-94405537D01*
X156152228Y-94465552D01*
X155998414Y-94496148D01*
X155841586Y-94496148D01*
X155687772Y-94465552D01*
X155542883Y-94405537D01*
X155412485Y-94318408D01*
X155301592Y-94207515D01*
X155214463Y-94077117D01*
X155154448Y-93932228D01*
X155123852Y-93778414D01*
X155123852Y-93621586D01*
X155154448Y-93467772D01*
X155214463Y-93322883D01*
X155301592Y-93192485D01*
X155412485Y-93081592D01*
X155542883Y-92994463D01*
X155687772Y-92934448D01*
X155841586Y-92903852D01*
X155998414Y-92903852D01*
X156152228Y-92934448D01*
G37*
G36*
X158692228Y-92934448D02*
G01*
X158837117Y-92994463D01*
X158967515Y-93081592D01*
X159078408Y-93192485D01*
X159165537Y-93322883D01*
X159225552Y-93467772D01*
X159256148Y-93621586D01*
X159256148Y-93778414D01*
X159225552Y-93932228D01*
X159165537Y-94077117D01*
X159078408Y-94207515D01*
X158967515Y-94318408D01*
X158837117Y-94405537D01*
X158692228Y-94465552D01*
X158538414Y-94496148D01*
X158381586Y-94496148D01*
X158227772Y-94465552D01*
X158082883Y-94405537D01*
X157952485Y-94318408D01*
X157841592Y-94207515D01*
X157754463Y-94077117D01*
X157694448Y-93932228D01*
X157663852Y-93778414D01*
X157663852Y-93621586D01*
X157694448Y-93467772D01*
X157754463Y-93322883D01*
X157841592Y-93192485D01*
X157952485Y-93081592D01*
X158082883Y-92994463D01*
X158227772Y-92934448D01*
X158381586Y-92903852D01*
X158538414Y-92903852D01*
X158692228Y-92934448D01*
G37*
G36*
X161232228Y-92934448D02*
G01*
X161377117Y-92994463D01*
X161507515Y-93081592D01*
X161618408Y-93192485D01*
X161705537Y-93322883D01*
X161765552Y-93467772D01*
X161796148Y-93621586D01*
X161796148Y-93778414D01*
X161765552Y-93932228D01*
X161705537Y-94077117D01*
X161618408Y-94207515D01*
X161507515Y-94318408D01*
X161377117Y-94405537D01*
X161232228Y-94465552D01*
X161078414Y-94496148D01*
X160921586Y-94496148D01*
X160767772Y-94465552D01*
X160622883Y-94405537D01*
X160492485Y-94318408D01*
X160381592Y-94207515D01*
X160294463Y-94077117D01*
X160234448Y-93932228D01*
X160203852Y-93778414D01*
X160203852Y-93621586D01*
X160234448Y-93467772D01*
X160294463Y-93322883D01*
X160381592Y-93192485D01*
X160492485Y-93081592D01*
X160622883Y-92994463D01*
X160767772Y-92934448D01*
X160921586Y-92903852D01*
X161078414Y-92903852D01*
X161232228Y-92934448D01*
G37*
G36*
X163772228Y-92934448D02*
G01*
X163917117Y-92994463D01*
X164047515Y-93081592D01*
X164158408Y-93192485D01*
X164245537Y-93322883D01*
X164305552Y-93467772D01*
X164336148Y-93621586D01*
X164336148Y-93778414D01*
X164305552Y-93932228D01*
X164245537Y-94077117D01*
X164158408Y-94207515D01*
X164047515Y-94318408D01*
X163917117Y-94405537D01*
X163772228Y-94465552D01*
X163618414Y-94496148D01*
X163461586Y-94496148D01*
X163307772Y-94465552D01*
X163162883Y-94405537D01*
X163032485Y-94318408D01*
X162921592Y-94207515D01*
X162834463Y-94077117D01*
X162774448Y-93932228D01*
X162743852Y-93778414D01*
X162743852Y-93621586D01*
X162774448Y-93467772D01*
X162834463Y-93322883D01*
X162921592Y-93192485D01*
X163032485Y-93081592D01*
X163162883Y-92994463D01*
X163307772Y-92934448D01*
X163461586Y-92903852D01*
X163618414Y-92903852D01*
X163772228Y-92934448D01*
G37*
G36*
X166312228Y-92934448D02*
G01*
X166457117Y-92994463D01*
X166587515Y-93081592D01*
X166698408Y-93192485D01*
X166785537Y-93322883D01*
X166845552Y-93467772D01*
X166876148Y-93621586D01*
X166876148Y-93778414D01*
X166845552Y-93932228D01*
X166785537Y-94077117D01*
X166698408Y-94207515D01*
X166587515Y-94318408D01*
X166457117Y-94405537D01*
X166312228Y-94465552D01*
X166158414Y-94496148D01*
X166001586Y-94496148D01*
X165847772Y-94465552D01*
X165702883Y-94405537D01*
X165572485Y-94318408D01*
X165461592Y-94207515D01*
X165374463Y-94077117D01*
X165314448Y-93932228D01*
X165283852Y-93778414D01*
X165283852Y-93621586D01*
X165314448Y-93467772D01*
X165374463Y-93322883D01*
X165461592Y-93192485D01*
X165572485Y-93081592D01*
X165702883Y-92994463D01*
X165847772Y-92934448D01*
X166001586Y-92903852D01*
X166158414Y-92903852D01*
X166312228Y-92934448D01*
G37*
G36*
X168852228Y-92934448D02*
G01*
X168997117Y-92994463D01*
X169127515Y-93081592D01*
X169238408Y-93192485D01*
X169325537Y-93322883D01*
X169385552Y-93467772D01*
X169416148Y-93621586D01*
X169416148Y-93778414D01*
X169385552Y-93932228D01*
X169325537Y-94077117D01*
X169238408Y-94207515D01*
X169127515Y-94318408D01*
X168997117Y-94405537D01*
X168852228Y-94465552D01*
X168698414Y-94496148D01*
X168541586Y-94496148D01*
X168387772Y-94465552D01*
X168242883Y-94405537D01*
X168112485Y-94318408D01*
X168001592Y-94207515D01*
X167914463Y-94077117D01*
X167854448Y-93932228D01*
X167823852Y-93778414D01*
X167823852Y-93621586D01*
X167854448Y-93467772D01*
X167914463Y-93322883D01*
X168001592Y-93192485D01*
X168112485Y-93081592D01*
X168242883Y-92994463D01*
X168387772Y-92934448D01*
X168541586Y-92903852D01*
X168698414Y-92903852D01*
X168852228Y-92934448D01*
G37*
G36*
X156152228Y-90394448D02*
G01*
X156297117Y-90454463D01*
X156427515Y-90541592D01*
X156538408Y-90652485D01*
X156625537Y-90782883D01*
X156685552Y-90927772D01*
X156716148Y-91081586D01*
X156716148Y-91238414D01*
X156685552Y-91392228D01*
X156625537Y-91537117D01*
X156538408Y-91667515D01*
X156427515Y-91778408D01*
X156297117Y-91865537D01*
X156152228Y-91925552D01*
X155998414Y-91956148D01*
X155841586Y-91956148D01*
X155687772Y-91925552D01*
X155542883Y-91865537D01*
X155412485Y-91778408D01*
X155301592Y-91667515D01*
X155214463Y-91537117D01*
X155154448Y-91392228D01*
X155123852Y-91238414D01*
X155123852Y-91081586D01*
X155154448Y-90927772D01*
X155214463Y-90782883D01*
X155301592Y-90652485D01*
X155412485Y-90541592D01*
X155542883Y-90454463D01*
X155687772Y-90394448D01*
X155841586Y-90363852D01*
X155998414Y-90363852D01*
X156152228Y-90394448D01*
G37*
G36*
X117299200Y-91449200D02*
G01*
X115699200Y-91449200D01*
X115699200Y-89849200D01*
X117299200Y-89849200D01*
X117299200Y-91449200D01*
G37*
G36*
X119271428Y-89883648D02*
G01*
X119416317Y-89943663D01*
X119546715Y-90030792D01*
X119657608Y-90141685D01*
X119744737Y-90272083D01*
X119804752Y-90416972D01*
X119835348Y-90570786D01*
X119835348Y-90727614D01*
X119804752Y-90881428D01*
X119744737Y-91026317D01*
X119657608Y-91156715D01*
X119546715Y-91267608D01*
X119416317Y-91354737D01*
X119271428Y-91414752D01*
X119117614Y-91445348D01*
X118960786Y-91445348D01*
X118806972Y-91414752D01*
X118662083Y-91354737D01*
X118531685Y-91267608D01*
X118420792Y-91156715D01*
X118333663Y-91026317D01*
X118273648Y-90881428D01*
X118243052Y-90727614D01*
X118243052Y-90570786D01*
X118273648Y-90416972D01*
X118333663Y-90272083D01*
X118420792Y-90141685D01*
X118531685Y-90030792D01*
X118662083Y-89943663D01*
X118806972Y-89883648D01*
X118960786Y-89853052D01*
X119117614Y-89853052D01*
X119271428Y-89883648D01*
G37*
G36*
X121811428Y-89883648D02*
G01*
X121956317Y-89943663D01*
X122086715Y-90030792D01*
X122197608Y-90141685D01*
X122284737Y-90272083D01*
X122344752Y-90416972D01*
X122375348Y-90570786D01*
X122375348Y-90727614D01*
X122344752Y-90881428D01*
X122284737Y-91026317D01*
X122197608Y-91156715D01*
X122086715Y-91267608D01*
X121956317Y-91354737D01*
X121811428Y-91414752D01*
X121657614Y-91445348D01*
X121500786Y-91445348D01*
X121346972Y-91414752D01*
X121202083Y-91354737D01*
X121071685Y-91267608D01*
X120960792Y-91156715D01*
X120873663Y-91026317D01*
X120813648Y-90881428D01*
X120783052Y-90727614D01*
X120783052Y-90570786D01*
X120813648Y-90416972D01*
X120873663Y-90272083D01*
X120960792Y-90141685D01*
X121071685Y-90030792D01*
X121202083Y-89943663D01*
X121346972Y-89883648D01*
X121500786Y-89853052D01*
X121657614Y-89853052D01*
X121811428Y-89883648D01*
G37*
G36*
X124351428Y-89883648D02*
G01*
X124496317Y-89943663D01*
X124626715Y-90030792D01*
X124737608Y-90141685D01*
X124824737Y-90272083D01*
X124884752Y-90416972D01*
X124915348Y-90570786D01*
X124915348Y-90727614D01*
X124884752Y-90881428D01*
X124824737Y-91026317D01*
X124737608Y-91156715D01*
X124626715Y-91267608D01*
X124496317Y-91354737D01*
X124351428Y-91414752D01*
X124197614Y-91445348D01*
X124040786Y-91445348D01*
X123886972Y-91414752D01*
X123742083Y-91354737D01*
X123611685Y-91267608D01*
X123500792Y-91156715D01*
X123413663Y-91026317D01*
X123353648Y-90881428D01*
X123323052Y-90727614D01*
X123323052Y-90570786D01*
X123353648Y-90416972D01*
X123413663Y-90272083D01*
X123500792Y-90141685D01*
X123611685Y-90030792D01*
X123742083Y-89943663D01*
X123886972Y-89883648D01*
X124040786Y-89853052D01*
X124197614Y-89853052D01*
X124351428Y-89883648D01*
G37*
G36*
X126891428Y-89883648D02*
G01*
X127036317Y-89943663D01*
X127166715Y-90030792D01*
X127277608Y-90141685D01*
X127364737Y-90272083D01*
X127424752Y-90416972D01*
X127455348Y-90570786D01*
X127455348Y-90727614D01*
X127424752Y-90881428D01*
X127364737Y-91026317D01*
X127277608Y-91156715D01*
X127166715Y-91267608D01*
X127036317Y-91354737D01*
X126891428Y-91414752D01*
X126737614Y-91445348D01*
X126580786Y-91445348D01*
X126426972Y-91414752D01*
X126282083Y-91354737D01*
X126151685Y-91267608D01*
X126040792Y-91156715D01*
X125953663Y-91026317D01*
X125893648Y-90881428D01*
X125863052Y-90727614D01*
X125863052Y-90570786D01*
X125893648Y-90416972D01*
X125953663Y-90272083D01*
X126040792Y-90141685D01*
X126151685Y-90030792D01*
X126282083Y-89943663D01*
X126426972Y-89883648D01*
X126580786Y-89853052D01*
X126737614Y-89853052D01*
X126891428Y-89883648D01*
G37*
G36*
X177815151Y-88607301D02*
G01*
X178016623Y-88672763D01*
X178205373Y-88768936D01*
X178376755Y-88893452D01*
X178526548Y-89043245D01*
X178651064Y-89214627D01*
X178747237Y-89403377D01*
X178812699Y-89604849D01*
X178845838Y-89814080D01*
X178845838Y-90025920D01*
X178812699Y-90235151D01*
X178747237Y-90436623D01*
X178651064Y-90625373D01*
X178526548Y-90796755D01*
X178376755Y-90946548D01*
X178205373Y-91071064D01*
X178016623Y-91167237D01*
X177815151Y-91232699D01*
X177605920Y-91265838D01*
X177394080Y-91265838D01*
X177184849Y-91232699D01*
X176983377Y-91167237D01*
X176794627Y-91071064D01*
X176623245Y-90946548D01*
X176473452Y-90796755D01*
X176348936Y-90625373D01*
X176252763Y-90436623D01*
X176187301Y-90235151D01*
X176154162Y-90025920D01*
X176154162Y-89814080D01*
X176187301Y-89604849D01*
X176252763Y-89403377D01*
X176348936Y-89214627D01*
X176473452Y-89043245D01*
X176623245Y-88893452D01*
X176794627Y-88768936D01*
X176983377Y-88672763D01*
X177184849Y-88607301D01*
X177394080Y-88574162D01*
X177605920Y-88574162D01*
X177815151Y-88607301D01*
G37*
G36*
X156152228Y-87854448D02*
G01*
X156297117Y-87914463D01*
X156427515Y-88001592D01*
X156538408Y-88112485D01*
X156625537Y-88242883D01*
X156685552Y-88387772D01*
X156716148Y-88541586D01*
X156716148Y-88698414D01*
X156685552Y-88852228D01*
X156625537Y-88997117D01*
X156538408Y-89127515D01*
X156427515Y-89238408D01*
X156297117Y-89325537D01*
X156152228Y-89385552D01*
X155998414Y-89416148D01*
X155841586Y-89416148D01*
X155687772Y-89385552D01*
X155542883Y-89325537D01*
X155412485Y-89238408D01*
X155301592Y-89127515D01*
X155214463Y-88997117D01*
X155154448Y-88852228D01*
X155123852Y-88698414D01*
X155123852Y-88541586D01*
X155154448Y-88387772D01*
X155214463Y-88242883D01*
X155301592Y-88112485D01*
X155412485Y-88001592D01*
X155542883Y-87914463D01*
X155687772Y-87854448D01*
X155841586Y-87823852D01*
X155998414Y-87823852D01*
X156152228Y-87854448D01*
G37*
G36*
X111118685Y-86727989D02*
G01*
X111236408Y-86776751D01*
X111342356Y-86847543D01*
X111432457Y-86937644D01*
X111503249Y-87043592D01*
X111552011Y-87161315D01*
X111576870Y-87286289D01*
X111576870Y-87413711D01*
X111552011Y-87538685D01*
X111503249Y-87656408D01*
X111432457Y-87762356D01*
X111342356Y-87852457D01*
X111236408Y-87923249D01*
X111118685Y-87972011D01*
X110993711Y-87996870D01*
X110866289Y-87996870D01*
X110741315Y-87972011D01*
X110623592Y-87923249D01*
X110517644Y-87852457D01*
X110427543Y-87762356D01*
X110356751Y-87656408D01*
X110307989Y-87538685D01*
X110283130Y-87413711D01*
X110283130Y-87286289D01*
X110307989Y-87161315D01*
X110356751Y-87043592D01*
X110427543Y-86937644D01*
X110517644Y-86847543D01*
X110623592Y-86776751D01*
X110741315Y-86727989D01*
X110866289Y-86703130D01*
X110993711Y-86703130D01*
X111118685Y-86727989D01*
G37*
G36*
X177815151Y-84647301D02*
G01*
X178016623Y-84712763D01*
X178205373Y-84808936D01*
X178376755Y-84933452D01*
X178526548Y-85083245D01*
X178651064Y-85254627D01*
X178747237Y-85443377D01*
X178812699Y-85644849D01*
X178845838Y-85854080D01*
X178845838Y-86065920D01*
X178812699Y-86275151D01*
X178747237Y-86476623D01*
X178651064Y-86665373D01*
X178526548Y-86836755D01*
X178376755Y-86986548D01*
X178205373Y-87111064D01*
X178016623Y-87207237D01*
X177815151Y-87272699D01*
X177605920Y-87305838D01*
X177394080Y-87305838D01*
X177184849Y-87272699D01*
X176983377Y-87207237D01*
X176794627Y-87111064D01*
X176623245Y-86986548D01*
X176473452Y-86836755D01*
X176348936Y-86665373D01*
X176252763Y-86476623D01*
X176187301Y-86275151D01*
X176154162Y-86065920D01*
X176154162Y-85854080D01*
X176187301Y-85644849D01*
X176252763Y-85443377D01*
X176348936Y-85254627D01*
X176473452Y-85083245D01*
X176623245Y-84933452D01*
X176794627Y-84808936D01*
X176983377Y-84712763D01*
X177184849Y-84647301D01*
X177394080Y-84614162D01*
X177605920Y-84614162D01*
X177815151Y-84647301D01*
G37*
G36*
X156152228Y-85314448D02*
G01*
X156297117Y-85374463D01*
X156427515Y-85461592D01*
X156538408Y-85572485D01*
X156625537Y-85702883D01*
X156685552Y-85847772D01*
X156716148Y-86001586D01*
X156716148Y-86158414D01*
X156685552Y-86312228D01*
X156625537Y-86457117D01*
X156538408Y-86587515D01*
X156427515Y-86698408D01*
X156297117Y-86785537D01*
X156152228Y-86845552D01*
X155998414Y-86876148D01*
X155841586Y-86876148D01*
X155687772Y-86845552D01*
X155542883Y-86785537D01*
X155412485Y-86698408D01*
X155301592Y-86587515D01*
X155214463Y-86457117D01*
X155154448Y-86312228D01*
X155123852Y-86158414D01*
X155123852Y-86001586D01*
X155154448Y-85847772D01*
X155214463Y-85702883D01*
X155301592Y-85572485D01*
X155412485Y-85461592D01*
X155542883Y-85374463D01*
X155687772Y-85314448D01*
X155841586Y-85283852D01*
X155998414Y-85283852D01*
X156152228Y-85314448D01*
G37*
G36*
X123358685Y-84276389D02*
G01*
X123476408Y-84325151D01*
X123582356Y-84395943D01*
X123672457Y-84486044D01*
X123743249Y-84591992D01*
X123792011Y-84709715D01*
X123816870Y-84834689D01*
X123816870Y-84962111D01*
X123792011Y-85087085D01*
X123743249Y-85204808D01*
X123672457Y-85310756D01*
X123582356Y-85400857D01*
X123476408Y-85471649D01*
X123358685Y-85520411D01*
X123233711Y-85545270D01*
X123106289Y-85545270D01*
X122981315Y-85520411D01*
X122863592Y-85471649D01*
X122757644Y-85400857D01*
X122667543Y-85310756D01*
X122596751Y-85204808D01*
X122547989Y-85087085D01*
X122523130Y-84962111D01*
X122523130Y-84834689D01*
X122547989Y-84709715D01*
X122596751Y-84591992D01*
X122667543Y-84486044D01*
X122757644Y-84395943D01*
X122863592Y-84325151D01*
X122981315Y-84276389D01*
X123106289Y-84251530D01*
X123233711Y-84251530D01*
X123358685Y-84276389D01*
G37*
G36*
X125358685Y-84276389D02*
G01*
X125476408Y-84325151D01*
X125582356Y-84395943D01*
X125672457Y-84486044D01*
X125743249Y-84591992D01*
X125792011Y-84709715D01*
X125816870Y-84834689D01*
X125816870Y-84962111D01*
X125792011Y-85087085D01*
X125743249Y-85204808D01*
X125672457Y-85310756D01*
X125582356Y-85400857D01*
X125476408Y-85471649D01*
X125358685Y-85520411D01*
X125233711Y-85545270D01*
X125106289Y-85545270D01*
X124981315Y-85520411D01*
X124863592Y-85471649D01*
X124757644Y-85400857D01*
X124667543Y-85310756D01*
X124596751Y-85204808D01*
X124547989Y-85087085D01*
X124523130Y-84962111D01*
X124523130Y-84834689D01*
X124547989Y-84709715D01*
X124596751Y-84591992D01*
X124667543Y-84486044D01*
X124757644Y-84395943D01*
X124863592Y-84325151D01*
X124981315Y-84276389D01*
X125106289Y-84251530D01*
X125233711Y-84251530D01*
X125358685Y-84276389D01*
G37*
G36*
X111118685Y-84187989D02*
G01*
X111236408Y-84236751D01*
X111342356Y-84307543D01*
X111432457Y-84397644D01*
X111503249Y-84503592D01*
X111552011Y-84621315D01*
X111576870Y-84746289D01*
X111576870Y-84873711D01*
X111552011Y-84998685D01*
X111503249Y-85116408D01*
X111432457Y-85222356D01*
X111342356Y-85312457D01*
X111236408Y-85383249D01*
X111118685Y-85432011D01*
X110993711Y-85456870D01*
X110866289Y-85456870D01*
X110741315Y-85432011D01*
X110623592Y-85383249D01*
X110517644Y-85312457D01*
X110427543Y-85222356D01*
X110356751Y-85116408D01*
X110307989Y-84998685D01*
X110283130Y-84873711D01*
X110283130Y-84746289D01*
X110307989Y-84621315D01*
X110356751Y-84503592D01*
X110427543Y-84397644D01*
X110517644Y-84307543D01*
X110623592Y-84236751D01*
X110741315Y-84187989D01*
X110866289Y-84163130D01*
X110993711Y-84163130D01*
X111118685Y-84187989D01*
G37*
G36*
X156152228Y-82774448D02*
G01*
X156297117Y-82834463D01*
X156427515Y-82921592D01*
X156538408Y-83032485D01*
X156625537Y-83162883D01*
X156685552Y-83307772D01*
X156716148Y-83461586D01*
X156716148Y-83618414D01*
X156685552Y-83772228D01*
X156625537Y-83917117D01*
X156538408Y-84047515D01*
X156427515Y-84158408D01*
X156297117Y-84245537D01*
X156152228Y-84305552D01*
X155998414Y-84336148D01*
X155841586Y-84336148D01*
X155687772Y-84305552D01*
X155542883Y-84245537D01*
X155412485Y-84158408D01*
X155301592Y-84047515D01*
X155214463Y-83917117D01*
X155154448Y-83772228D01*
X155123852Y-83618414D01*
X155123852Y-83461586D01*
X155154448Y-83307772D01*
X155214463Y-83162883D01*
X155301592Y-83032485D01*
X155412485Y-82921592D01*
X155542883Y-82834463D01*
X155687772Y-82774448D01*
X155841586Y-82743852D01*
X155998414Y-82743852D01*
X156152228Y-82774448D01*
G37*
G36*
X123358685Y-82276389D02*
G01*
X123476408Y-82325151D01*
X123582356Y-82395943D01*
X123672457Y-82486044D01*
X123743249Y-82591992D01*
X123792011Y-82709715D01*
X123816870Y-82834689D01*
X123816870Y-82962111D01*
X123792011Y-83087085D01*
X123743249Y-83204808D01*
X123672457Y-83310756D01*
X123582356Y-83400857D01*
X123476408Y-83471649D01*
X123358685Y-83520411D01*
X123233711Y-83545270D01*
X123106289Y-83545270D01*
X122981315Y-83520411D01*
X122863592Y-83471649D01*
X122757644Y-83400857D01*
X122667543Y-83310756D01*
X122596751Y-83204808D01*
X122547989Y-83087085D01*
X122523130Y-82962111D01*
X122523130Y-82834689D01*
X122547989Y-82709715D01*
X122596751Y-82591992D01*
X122667543Y-82486044D01*
X122757644Y-82395943D01*
X122863592Y-82325151D01*
X122981315Y-82276389D01*
X123106289Y-82251530D01*
X123233711Y-82251530D01*
X123358685Y-82276389D01*
G37*
G36*
X125358685Y-82276389D02*
G01*
X125476408Y-82325151D01*
X125582356Y-82395943D01*
X125672457Y-82486044D01*
X125743249Y-82591992D01*
X125792011Y-82709715D01*
X125816870Y-82834689D01*
X125816870Y-82962111D01*
X125792011Y-83087085D01*
X125743249Y-83204808D01*
X125672457Y-83310756D01*
X125582356Y-83400857D01*
X125476408Y-83471649D01*
X125358685Y-83520411D01*
X125233711Y-83545270D01*
X125106289Y-83545270D01*
X124981315Y-83520411D01*
X124863592Y-83471649D01*
X124757644Y-83400857D01*
X124667543Y-83310756D01*
X124596751Y-83204808D01*
X124547989Y-83087085D01*
X124523130Y-82962111D01*
X124523130Y-82834689D01*
X124547989Y-82709715D01*
X124596751Y-82591992D01*
X124667543Y-82486044D01*
X124757644Y-82395943D01*
X124863592Y-82325151D01*
X124981315Y-82276389D01*
X125106289Y-82251530D01*
X125233711Y-82251530D01*
X125358685Y-82276389D01*
G37*
G36*
X177815151Y-80687301D02*
G01*
X178016623Y-80752763D01*
X178205373Y-80848936D01*
X178376755Y-80973452D01*
X178526548Y-81123245D01*
X178651064Y-81294627D01*
X178747237Y-81483377D01*
X178812699Y-81684849D01*
X178845838Y-81894080D01*
X178845838Y-82105920D01*
X178812699Y-82315151D01*
X178747237Y-82516623D01*
X178651064Y-82705373D01*
X178526548Y-82876755D01*
X178376755Y-83026548D01*
X178205373Y-83151064D01*
X178016623Y-83247237D01*
X177815151Y-83312699D01*
X177605920Y-83345838D01*
X177394080Y-83345838D01*
X177184849Y-83312699D01*
X176983377Y-83247237D01*
X176794627Y-83151064D01*
X176623245Y-83026548D01*
X176473452Y-82876755D01*
X176348936Y-82705373D01*
X176252763Y-82516623D01*
X176187301Y-82315151D01*
X176154162Y-82105920D01*
X176154162Y-81894080D01*
X176187301Y-81684849D01*
X176252763Y-81483377D01*
X176348936Y-81294627D01*
X176473452Y-81123245D01*
X176623245Y-80973452D01*
X176794627Y-80848936D01*
X176983377Y-80752763D01*
X177184849Y-80687301D01*
X177394080Y-80654162D01*
X177605920Y-80654162D01*
X177815151Y-80687301D01*
G37*
G36*
X112972228Y-80234448D02*
G01*
X113117117Y-80294463D01*
X113247515Y-80381592D01*
X113358408Y-80492485D01*
X113445537Y-80622883D01*
X113505552Y-80767772D01*
X113536148Y-80921586D01*
X113536148Y-81078414D01*
X113505552Y-81232228D01*
X113445537Y-81377117D01*
X113358408Y-81507515D01*
X113247515Y-81618408D01*
X113117117Y-81705537D01*
X112972228Y-81765552D01*
X112818414Y-81796148D01*
X112661586Y-81796148D01*
X112507772Y-81765552D01*
X112362883Y-81705537D01*
X112232485Y-81618408D01*
X112121592Y-81507515D01*
X112034463Y-81377117D01*
X111974448Y-81232228D01*
X111943852Y-81078414D01*
X111943852Y-80921586D01*
X111974448Y-80767772D01*
X112034463Y-80622883D01*
X112121592Y-80492485D01*
X112232485Y-80381592D01*
X112362883Y-80294463D01*
X112507772Y-80234448D01*
X112661586Y-80203852D01*
X112818414Y-80203852D01*
X112972228Y-80234448D01*
G37*
G36*
X156152228Y-80234448D02*
G01*
X156297117Y-80294463D01*
X156427515Y-80381592D01*
X156538408Y-80492485D01*
X156625537Y-80622883D01*
X156685552Y-80767772D01*
X156716148Y-80921586D01*
X156716148Y-81078414D01*
X156685552Y-81232228D01*
X156625537Y-81377117D01*
X156538408Y-81507515D01*
X156427515Y-81618408D01*
X156297117Y-81705537D01*
X156152228Y-81765552D01*
X155998414Y-81796148D01*
X155841586Y-81796148D01*
X155687772Y-81765552D01*
X155542883Y-81705537D01*
X155412485Y-81618408D01*
X155301592Y-81507515D01*
X155214463Y-81377117D01*
X155154448Y-81232228D01*
X155123852Y-81078414D01*
X155123852Y-80921586D01*
X155154448Y-80767772D01*
X155214463Y-80622883D01*
X155301592Y-80492485D01*
X155412485Y-80381592D01*
X155542883Y-80294463D01*
X155687772Y-80234448D01*
X155841586Y-80203852D01*
X155998414Y-80203852D01*
X156152228Y-80234448D01*
G37*
G36*
X123820000Y-81548400D02*
G01*
X122520000Y-81548400D01*
X122520000Y-80248400D01*
X123820000Y-80248400D01*
X123820000Y-81548400D01*
G37*
G36*
X125358685Y-80276389D02*
G01*
X125476408Y-80325151D01*
X125582356Y-80395943D01*
X125672457Y-80486044D01*
X125743249Y-80591992D01*
X125792011Y-80709715D01*
X125816870Y-80834689D01*
X125816870Y-80962111D01*
X125792011Y-81087085D01*
X125743249Y-81204808D01*
X125672457Y-81310756D01*
X125582356Y-81400857D01*
X125476408Y-81471649D01*
X125358685Y-81520411D01*
X125233711Y-81545270D01*
X125106289Y-81545270D01*
X124981315Y-81520411D01*
X124863592Y-81471649D01*
X124757644Y-81400857D01*
X124667543Y-81310756D01*
X124596751Y-81204808D01*
X124547989Y-81087085D01*
X124523130Y-80962111D01*
X124523130Y-80834689D01*
X124547989Y-80709715D01*
X124596751Y-80591992D01*
X124667543Y-80486044D01*
X124757644Y-80395943D01*
X124863592Y-80325151D01*
X124981315Y-80276389D01*
X125106289Y-80251530D01*
X125233711Y-80251530D01*
X125358685Y-80276389D01*
G37*
G36*
X178604848Y-76690964D02*
G01*
X178655040Y-76696787D01*
X178672189Y-76704359D01*
X178695670Y-76709030D01*
X178720807Y-76725826D01*
X178740695Y-76734608D01*
X178754278Y-76748191D01*
X178776776Y-76763224D01*
X178791808Y-76785721D01*
X178805391Y-76799304D01*
X178814171Y-76819189D01*
X178830970Y-76844330D01*
X178835640Y-76867811D01*
X178843212Y-76884959D01*
X178849036Y-76935163D01*
X178849999Y-76940002D01*
X178849999Y-76943458D01*
X178850000Y-76943467D01*
X178850000Y-78082883D01*
X178850000Y-79139999D01*
X178849034Y-79144851D01*
X178843212Y-79195040D01*
X178835641Y-79212185D01*
X178830970Y-79235670D01*
X178814170Y-79260812D01*
X178805391Y-79280695D01*
X178791810Y-79294275D01*
X178776776Y-79316776D01*
X178754275Y-79331810D01*
X178740695Y-79345391D01*
X178720812Y-79354170D01*
X178695670Y-79370970D01*
X178672187Y-79375640D01*
X178655040Y-79383212D01*
X178604836Y-79389036D01*
X178599998Y-79389999D01*
X178596541Y-79389999D01*
X178596533Y-79390000D01*
X176403467Y-79390000D01*
X176403466Y-79389999D01*
X176400001Y-79390000D01*
X176395149Y-79389035D01*
X176344959Y-79383212D01*
X176327812Y-79375640D01*
X176304330Y-79370970D01*
X176279189Y-79354171D01*
X176259304Y-79345391D01*
X176245721Y-79331808D01*
X176223224Y-79316776D01*
X176208191Y-79294278D01*
X176194608Y-79280695D01*
X176185826Y-79260807D01*
X176169030Y-79235670D01*
X176164360Y-79212191D01*
X176156787Y-79195040D01*
X176150963Y-79144836D01*
X176150001Y-79139998D01*
X176150000Y-79136540D01*
X176150000Y-79136532D01*
X176150000Y-76943467D01*
X176150000Y-76943466D01*
X176150000Y-76940001D01*
X176150964Y-76935151D01*
X176156787Y-76884959D01*
X176164359Y-76867808D01*
X176169030Y-76844330D01*
X176185825Y-76819193D01*
X176194608Y-76799304D01*
X176208193Y-76785718D01*
X176223224Y-76763224D01*
X176245718Y-76748193D01*
X176259304Y-76734608D01*
X176279193Y-76725825D01*
X176304330Y-76709030D01*
X176327807Y-76704360D01*
X176344959Y-76696787D01*
X176395165Y-76690963D01*
X176400002Y-76690001D01*
X176403458Y-76690000D01*
X176403467Y-76690000D01*
X178596533Y-76690000D01*
X178599999Y-76690000D01*
X178604848Y-76690964D01*
G37*
G36*
X110432228Y-77694448D02*
G01*
X110577117Y-77754463D01*
X110707515Y-77841592D01*
X110818408Y-77952485D01*
X110905537Y-78082883D01*
X110965552Y-78227772D01*
X110996148Y-78381586D01*
X110996148Y-78538414D01*
X110965552Y-78692228D01*
X110905537Y-78837117D01*
X110818408Y-78967515D01*
X110707515Y-79078408D01*
X110577117Y-79165537D01*
X110432228Y-79225552D01*
X110278414Y-79256148D01*
X110121586Y-79256148D01*
X109967772Y-79225552D01*
X109822883Y-79165537D01*
X109692485Y-79078408D01*
X109581592Y-78967515D01*
X109494463Y-78837117D01*
X109434448Y-78692228D01*
X109403852Y-78538414D01*
X109403852Y-78381586D01*
X109434448Y-78227772D01*
X109494463Y-78082883D01*
X109581592Y-77952485D01*
X109692485Y-77841592D01*
X109822883Y-77754463D01*
X109967772Y-77694448D01*
X110121586Y-77663852D01*
X110278414Y-77663852D01*
X110432228Y-77694448D01*
G37*
G36*
X112972228Y-77694448D02*
G01*
X113117117Y-77754463D01*
X113247515Y-77841592D01*
X113358408Y-77952485D01*
X113445537Y-78082883D01*
X113505552Y-78227772D01*
X113536148Y-78381586D01*
X113536148Y-78538414D01*
X113505552Y-78692228D01*
X113445537Y-78837117D01*
X113358408Y-78967515D01*
X113247515Y-79078408D01*
X113117117Y-79165537D01*
X112972228Y-79225552D01*
X112818414Y-79256148D01*
X112661586Y-79256148D01*
X112507772Y-79225552D01*
X112362883Y-79165537D01*
X112232485Y-79078408D01*
X112121592Y-78967515D01*
X112034463Y-78837117D01*
X111974448Y-78692228D01*
X111943852Y-78538414D01*
X111943852Y-78381586D01*
X111974448Y-78227772D01*
X112034463Y-78082883D01*
X112121592Y-77952485D01*
X112232485Y-77841592D01*
X112362883Y-77754463D01*
X112507772Y-77694448D01*
X112661586Y-77663852D01*
X112818414Y-77663852D01*
X112972228Y-77694448D01*
G37*
G36*
X115512228Y-77694448D02*
G01*
X115657117Y-77754463D01*
X115787515Y-77841592D01*
X115898408Y-77952485D01*
X115985537Y-78082883D01*
X116045552Y-78227772D01*
X116076148Y-78381586D01*
X116076148Y-78538414D01*
X116045552Y-78692228D01*
X115985537Y-78837117D01*
X115898408Y-78967515D01*
X115787515Y-79078408D01*
X115657117Y-79165537D01*
X115512228Y-79225552D01*
X115358414Y-79256148D01*
X115201586Y-79256148D01*
X115047772Y-79225552D01*
X114902883Y-79165537D01*
X114772485Y-79078408D01*
X114661592Y-78967515D01*
X114574463Y-78837117D01*
X114514448Y-78692228D01*
X114483852Y-78538414D01*
X114483852Y-78381586D01*
X114514448Y-78227772D01*
X114574463Y-78082883D01*
X114661592Y-77952485D01*
X114772485Y-77841592D01*
X114902883Y-77754463D01*
X115047772Y-77694448D01*
X115201586Y-77663852D01*
X115358414Y-77663852D01*
X115512228Y-77694448D01*
G37*
G36*
X118052228Y-77694448D02*
G01*
X118197117Y-77754463D01*
X118327515Y-77841592D01*
X118438408Y-77952485D01*
X118525537Y-78082883D01*
X118585552Y-78227772D01*
X118616148Y-78381586D01*
X118616148Y-78538414D01*
X118585552Y-78692228D01*
X118525537Y-78837117D01*
X118438408Y-78967515D01*
X118327515Y-79078408D01*
X118197117Y-79165537D01*
X118052228Y-79225552D01*
X117898414Y-79256148D01*
X117741586Y-79256148D01*
X117587772Y-79225552D01*
X117442883Y-79165537D01*
X117312485Y-79078408D01*
X117201592Y-78967515D01*
X117114463Y-78837117D01*
X117054448Y-78692228D01*
X117023852Y-78538414D01*
X117023852Y-78381586D01*
X117054448Y-78227772D01*
X117114463Y-78082883D01*
X117201592Y-77952485D01*
X117312485Y-77841592D01*
X117442883Y-77754463D01*
X117587772Y-77694448D01*
X117741586Y-77663852D01*
X117898414Y-77663852D01*
X118052228Y-77694448D01*
G37*
G36*
X120592228Y-77694448D02*
G01*
X120737117Y-77754463D01*
X120867515Y-77841592D01*
X120978408Y-77952485D01*
X121065537Y-78082883D01*
X121125552Y-78227772D01*
X121156148Y-78381586D01*
X121156148Y-78538414D01*
X121125552Y-78692228D01*
X121065537Y-78837117D01*
X120978408Y-78967515D01*
X120867515Y-79078408D01*
X120737117Y-79165537D01*
X120592228Y-79225552D01*
X120438414Y-79256148D01*
X120281586Y-79256148D01*
X120127772Y-79225552D01*
X119982883Y-79165537D01*
X119852485Y-79078408D01*
X119741592Y-78967515D01*
X119654463Y-78837117D01*
X119594448Y-78692228D01*
X119563852Y-78538414D01*
X119563852Y-78381586D01*
X119594448Y-78227772D01*
X119654463Y-78082883D01*
X119741592Y-77952485D01*
X119852485Y-77841592D01*
X119982883Y-77754463D01*
X120127772Y-77694448D01*
X120281586Y-77663852D01*
X120438414Y-77663852D01*
X120592228Y-77694448D01*
G37*
G36*
X123132228Y-77694448D02*
G01*
X123277117Y-77754463D01*
X123407515Y-77841592D01*
X123518408Y-77952485D01*
X123605537Y-78082883D01*
X123665552Y-78227772D01*
X123696148Y-78381586D01*
X123696148Y-78538414D01*
X123665552Y-78692228D01*
X123605537Y-78837117D01*
X123518408Y-78967515D01*
X123407515Y-79078408D01*
X123277117Y-79165537D01*
X123132228Y-79225552D01*
X122978414Y-79256148D01*
X122821586Y-79256148D01*
X122667772Y-79225552D01*
X122522883Y-79165537D01*
X122392485Y-79078408D01*
X122281592Y-78967515D01*
X122194463Y-78837117D01*
X122134448Y-78692228D01*
X122103852Y-78538414D01*
X122103852Y-78381586D01*
X122134448Y-78227772D01*
X122194463Y-78082883D01*
X122281592Y-77952485D01*
X122392485Y-77841592D01*
X122522883Y-77754463D01*
X122667772Y-77694448D01*
X122821586Y-77663852D01*
X122978414Y-77663852D01*
X123132228Y-77694448D01*
G37*
G36*
X125672228Y-77694448D02*
G01*
X125817117Y-77754463D01*
X125947515Y-77841592D01*
X126058408Y-77952485D01*
X126145537Y-78082883D01*
X126205552Y-78227772D01*
X126236148Y-78381586D01*
X126236148Y-78538414D01*
X126205552Y-78692228D01*
X126145537Y-78837117D01*
X126058408Y-78967515D01*
X125947515Y-79078408D01*
X125817117Y-79165537D01*
X125672228Y-79225552D01*
X125518414Y-79256148D01*
X125361586Y-79256148D01*
X125207772Y-79225552D01*
X125062883Y-79165537D01*
X124932485Y-79078408D01*
X124821592Y-78967515D01*
X124734463Y-78837117D01*
X124674448Y-78692228D01*
X124643852Y-78538414D01*
X124643852Y-78381586D01*
X124674448Y-78227772D01*
X124734463Y-78082883D01*
X124821592Y-77952485D01*
X124932485Y-77841592D01*
X125062883Y-77754463D01*
X125207772Y-77694448D01*
X125361586Y-77663852D01*
X125518414Y-77663852D01*
X125672228Y-77694448D01*
G37*
G36*
X128212228Y-77694448D02*
G01*
X128357117Y-77754463D01*
X128487515Y-77841592D01*
X128598408Y-77952485D01*
X128685537Y-78082883D01*
X128745552Y-78227772D01*
X128776148Y-78381586D01*
X128776148Y-78538414D01*
X128745552Y-78692228D01*
X128685537Y-78837117D01*
X128598408Y-78967515D01*
X128487515Y-79078408D01*
X128357117Y-79165537D01*
X128212228Y-79225552D01*
X128058414Y-79256148D01*
X127901586Y-79256148D01*
X127747772Y-79225552D01*
X127602883Y-79165537D01*
X127472485Y-79078408D01*
X127361592Y-78967515D01*
X127274463Y-78837117D01*
X127214448Y-78692228D01*
X127183852Y-78538414D01*
X127183852Y-78381586D01*
X127214448Y-78227772D01*
X127274463Y-78082883D01*
X127361592Y-77952485D01*
X127472485Y-77841592D01*
X127602883Y-77754463D01*
X127747772Y-77694448D01*
X127901586Y-77663852D01*
X128058414Y-77663852D01*
X128212228Y-77694448D01*
G37*
G36*
X130752228Y-77694448D02*
G01*
X130897117Y-77754463D01*
X131027515Y-77841592D01*
X131138408Y-77952485D01*
X131225537Y-78082883D01*
X131285552Y-78227772D01*
X131316148Y-78381586D01*
X131316148Y-78538414D01*
X131285552Y-78692228D01*
X131225537Y-78837117D01*
X131138408Y-78967515D01*
X131027515Y-79078408D01*
X130897117Y-79165537D01*
X130752228Y-79225552D01*
X130598414Y-79256148D01*
X130441586Y-79256148D01*
X130287772Y-79225552D01*
X130142883Y-79165537D01*
X130012485Y-79078408D01*
X129901592Y-78967515D01*
X129814463Y-78837117D01*
X129754448Y-78692228D01*
X129723852Y-78538414D01*
X129723852Y-78381586D01*
X129754448Y-78227772D01*
X129814463Y-78082883D01*
X129901592Y-77952485D01*
X130012485Y-77841592D01*
X130142883Y-77754463D01*
X130287772Y-77694448D01*
X130441586Y-77663852D01*
X130598414Y-77663852D01*
X130752228Y-77694448D01*
G37*
G36*
X133292228Y-77694448D02*
G01*
X133437117Y-77754463D01*
X133567515Y-77841592D01*
X133678408Y-77952485D01*
X133765537Y-78082883D01*
X133825552Y-78227772D01*
X133856148Y-78381586D01*
X133856148Y-78538414D01*
X133825552Y-78692228D01*
X133765537Y-78837117D01*
X133678408Y-78967515D01*
X133567515Y-79078408D01*
X133437117Y-79165537D01*
X133292228Y-79225552D01*
X133138414Y-79256148D01*
X132981586Y-79256148D01*
X132827772Y-79225552D01*
X132682883Y-79165537D01*
X132552485Y-79078408D01*
X132441592Y-78967515D01*
X132354463Y-78837117D01*
X132294448Y-78692228D01*
X132263852Y-78538414D01*
X132263852Y-78381586D01*
X132294448Y-78227772D01*
X132354463Y-78082883D01*
X132441592Y-77952485D01*
X132552485Y-77841592D01*
X132682883Y-77754463D01*
X132827772Y-77694448D01*
X132981586Y-77663852D01*
X133138414Y-77663852D01*
X133292228Y-77694448D01*
G37*
G36*
X135832228Y-77694448D02*
G01*
X135977117Y-77754463D01*
X136107515Y-77841592D01*
X136218408Y-77952485D01*
X136305537Y-78082883D01*
X136365552Y-78227772D01*
X136396148Y-78381586D01*
X136396148Y-78538414D01*
X136365552Y-78692228D01*
X136305537Y-78837117D01*
X136218408Y-78967515D01*
X136107515Y-79078408D01*
X135977117Y-79165537D01*
X135832228Y-79225552D01*
X135678414Y-79256148D01*
X135521586Y-79256148D01*
X135367772Y-79225552D01*
X135222883Y-79165537D01*
X135092485Y-79078408D01*
X134981592Y-78967515D01*
X134894463Y-78837117D01*
X134834448Y-78692228D01*
X134803852Y-78538414D01*
X134803852Y-78381586D01*
X134834448Y-78227772D01*
X134894463Y-78082883D01*
X134981592Y-77952485D01*
X135092485Y-77841592D01*
X135222883Y-77754463D01*
X135367772Y-77694448D01*
X135521586Y-77663852D01*
X135678414Y-77663852D01*
X135832228Y-77694448D01*
G37*
G36*
X138372228Y-77694448D02*
G01*
X138517117Y-77754463D01*
X138647515Y-77841592D01*
X138758408Y-77952485D01*
X138845537Y-78082883D01*
X138905552Y-78227772D01*
X138936148Y-78381586D01*
X138936148Y-78538414D01*
X138905552Y-78692228D01*
X138845537Y-78837117D01*
X138758408Y-78967515D01*
X138647515Y-79078408D01*
X138517117Y-79165537D01*
X138372228Y-79225552D01*
X138218414Y-79256148D01*
X138061586Y-79256148D01*
X137907772Y-79225552D01*
X137762883Y-79165537D01*
X137632485Y-79078408D01*
X137521592Y-78967515D01*
X137434463Y-78837117D01*
X137374448Y-78692228D01*
X137343852Y-78538414D01*
X137343852Y-78381586D01*
X137374448Y-78227772D01*
X137434463Y-78082883D01*
X137521592Y-77952485D01*
X137632485Y-77841592D01*
X137762883Y-77754463D01*
X137907772Y-77694448D01*
X138061586Y-77663852D01*
X138218414Y-77663852D01*
X138372228Y-77694448D01*
G37*
G36*
X140912228Y-77694448D02*
G01*
X141057117Y-77754463D01*
X141187515Y-77841592D01*
X141298408Y-77952485D01*
X141385537Y-78082883D01*
X141445552Y-78227772D01*
X141476148Y-78381586D01*
X141476148Y-78538414D01*
X141445552Y-78692228D01*
X141385537Y-78837117D01*
X141298408Y-78967515D01*
X141187515Y-79078408D01*
X141057117Y-79165537D01*
X140912228Y-79225552D01*
X140758414Y-79256148D01*
X140601586Y-79256148D01*
X140447772Y-79225552D01*
X140302883Y-79165537D01*
X140172485Y-79078408D01*
X140061592Y-78967515D01*
X139974463Y-78837117D01*
X139914448Y-78692228D01*
X139883852Y-78538414D01*
X139883852Y-78381586D01*
X139914448Y-78227772D01*
X139974463Y-78082883D01*
X140061592Y-77952485D01*
X140172485Y-77841592D01*
X140302883Y-77754463D01*
X140447772Y-77694448D01*
X140601586Y-77663852D01*
X140758414Y-77663852D01*
X140912228Y-77694448D01*
G37*
G36*
X143452228Y-77694448D02*
G01*
X143597117Y-77754463D01*
X143727515Y-77841592D01*
X143838408Y-77952485D01*
X143925537Y-78082883D01*
X143985552Y-78227772D01*
X144016148Y-78381586D01*
X144016148Y-78538414D01*
X143985552Y-78692228D01*
X143925537Y-78837117D01*
X143838408Y-78967515D01*
X143727515Y-79078408D01*
X143597117Y-79165537D01*
X143452228Y-79225552D01*
X143298414Y-79256148D01*
X143141586Y-79256148D01*
X142987772Y-79225552D01*
X142842883Y-79165537D01*
X142712485Y-79078408D01*
X142601592Y-78967515D01*
X142514463Y-78837117D01*
X142454448Y-78692228D01*
X142423852Y-78538414D01*
X142423852Y-78381586D01*
X142454448Y-78227772D01*
X142514463Y-78082883D01*
X142601592Y-77952485D01*
X142712485Y-77841592D01*
X142842883Y-77754463D01*
X142987772Y-77694448D01*
X143141586Y-77663852D01*
X143298414Y-77663852D01*
X143452228Y-77694448D01*
G37*
G36*
X145992228Y-77694448D02*
G01*
X146137117Y-77754463D01*
X146267515Y-77841592D01*
X146378408Y-77952485D01*
X146465537Y-78082883D01*
X146525552Y-78227772D01*
X146556148Y-78381586D01*
X146556148Y-78538414D01*
X146525552Y-78692228D01*
X146465537Y-78837117D01*
X146378408Y-78967515D01*
X146267515Y-79078408D01*
X146137117Y-79165537D01*
X145992228Y-79225552D01*
X145838414Y-79256148D01*
X145681586Y-79256148D01*
X145527772Y-79225552D01*
X145382883Y-79165537D01*
X145252485Y-79078408D01*
X145141592Y-78967515D01*
X145054463Y-78837117D01*
X144994448Y-78692228D01*
X144963852Y-78538414D01*
X144963852Y-78381586D01*
X144994448Y-78227772D01*
X145054463Y-78082883D01*
X145141592Y-77952485D01*
X145252485Y-77841592D01*
X145382883Y-77754463D01*
X145527772Y-77694448D01*
X145681586Y-77663852D01*
X145838414Y-77663852D01*
X145992228Y-77694448D01*
G37*
G36*
X148532228Y-77694448D02*
G01*
X148677117Y-77754463D01*
X148807515Y-77841592D01*
X148918408Y-77952485D01*
X149005537Y-78082883D01*
X149065552Y-78227772D01*
X149096148Y-78381586D01*
X149096148Y-78538414D01*
X149065552Y-78692228D01*
X149005537Y-78837117D01*
X148918408Y-78967515D01*
X148807515Y-79078408D01*
X148677117Y-79165537D01*
X148532228Y-79225552D01*
X148378414Y-79256148D01*
X148221586Y-79256148D01*
X148067772Y-79225552D01*
X147922883Y-79165537D01*
X147792485Y-79078408D01*
X147681592Y-78967515D01*
X147594463Y-78837117D01*
X147534448Y-78692228D01*
X147503852Y-78538414D01*
X147503852Y-78381586D01*
X147534448Y-78227772D01*
X147594463Y-78082883D01*
X147681592Y-77952485D01*
X147792485Y-77841592D01*
X147922883Y-77754463D01*
X148067772Y-77694448D01*
X148221586Y-77663852D01*
X148378414Y-77663852D01*
X148532228Y-77694448D01*
G37*
G36*
X151072228Y-77694448D02*
G01*
X151217117Y-77754463D01*
X151347515Y-77841592D01*
X151458408Y-77952485D01*
X151545537Y-78082883D01*
X151605552Y-78227772D01*
X151636148Y-78381586D01*
X151636148Y-78538414D01*
X151605552Y-78692228D01*
X151545537Y-78837117D01*
X151458408Y-78967515D01*
X151347515Y-79078408D01*
X151217117Y-79165537D01*
X151072228Y-79225552D01*
X150918414Y-79256148D01*
X150761586Y-79256148D01*
X150607772Y-79225552D01*
X150462883Y-79165537D01*
X150332485Y-79078408D01*
X150221592Y-78967515D01*
X150134463Y-78837117D01*
X150074448Y-78692228D01*
X150043852Y-78538414D01*
X150043852Y-78381586D01*
X150074448Y-78227772D01*
X150134463Y-78082883D01*
X150221592Y-77952485D01*
X150332485Y-77841592D01*
X150462883Y-77754463D01*
X150607772Y-77694448D01*
X150761586Y-77663852D01*
X150918414Y-77663852D01*
X151072228Y-77694448D01*
G37*
G36*
X153612228Y-77694448D02*
G01*
X153757117Y-77754463D01*
X153887515Y-77841592D01*
X153998408Y-77952485D01*
X154085537Y-78082883D01*
X154145552Y-78227772D01*
X154176148Y-78381586D01*
X154176148Y-78538414D01*
X154145552Y-78692228D01*
X154085537Y-78837117D01*
X153998408Y-78967515D01*
X153887515Y-79078408D01*
X153757117Y-79165537D01*
X153612228Y-79225552D01*
X153458414Y-79256148D01*
X153301586Y-79256148D01*
X153147772Y-79225552D01*
X153002883Y-79165537D01*
X152872485Y-79078408D01*
X152761592Y-78967515D01*
X152674463Y-78837117D01*
X152614448Y-78692228D01*
X152583852Y-78538414D01*
X152583852Y-78381586D01*
X152614448Y-78227772D01*
X152674463Y-78082883D01*
X152761592Y-77952485D01*
X152872485Y-77841592D01*
X153002883Y-77754463D01*
X153147772Y-77694448D01*
X153301586Y-77663852D01*
X153458414Y-77663852D01*
X153612228Y-77694448D01*
G37*
G36*
X156152228Y-77694448D02*
G01*
X156297117Y-77754463D01*
X156427515Y-77841592D01*
X156538408Y-77952485D01*
X156625537Y-78082883D01*
X156685552Y-78227772D01*
X156716148Y-78381586D01*
X156716148Y-78538414D01*
X156685552Y-78692228D01*
X156625537Y-78837117D01*
X156538408Y-78967515D01*
X156427515Y-79078408D01*
X156297117Y-79165537D01*
X156152228Y-79225552D01*
X155998414Y-79256148D01*
X155841586Y-79256148D01*
X155687772Y-79225552D01*
X155542883Y-79165537D01*
X155412485Y-79078408D01*
X155301592Y-78967515D01*
X155214463Y-78837117D01*
X155154448Y-78692228D01*
X155123852Y-78538414D01*
X155123852Y-78381586D01*
X155154448Y-78227772D01*
X155214463Y-78082883D01*
X155301592Y-77952485D01*
X155412485Y-77841592D01*
X155542883Y-77754463D01*
X155687772Y-77694448D01*
X155841586Y-77663852D01*
X155998414Y-77663852D01*
X156152228Y-77694448D01*
G37*
G36*
X158692228Y-77694448D02*
G01*
X158837117Y-77754463D01*
X158967515Y-77841592D01*
X159078408Y-77952485D01*
X159165537Y-78082883D01*
X159225552Y-78227772D01*
X159256148Y-78381586D01*
X159256148Y-78538414D01*
X159225552Y-78692228D01*
X159165537Y-78837117D01*
X159078408Y-78967515D01*
X158967515Y-79078408D01*
X158837117Y-79165537D01*
X158692228Y-79225552D01*
X158538414Y-79256148D01*
X158381586Y-79256148D01*
X158227772Y-79225552D01*
X158082883Y-79165537D01*
X157952485Y-79078408D01*
X157841592Y-78967515D01*
X157754463Y-78837117D01*
X157694448Y-78692228D01*
X157663852Y-78538414D01*
X157663852Y-78381586D01*
X157694448Y-78227772D01*
X157754463Y-78082883D01*
X157841592Y-77952485D01*
X157952485Y-77841592D01*
X158082883Y-77754463D01*
X158227772Y-77694448D01*
X158381586Y-77663852D01*
X158538414Y-77663852D01*
X158692228Y-77694448D01*
G37*
G36*
X161232228Y-77694448D02*
G01*
X161377117Y-77754463D01*
X161507515Y-77841592D01*
X161618408Y-77952485D01*
X161705537Y-78082883D01*
X161765552Y-78227772D01*
X161796148Y-78381586D01*
X161796148Y-78538414D01*
X161765552Y-78692228D01*
X161705537Y-78837117D01*
X161618408Y-78967515D01*
X161507515Y-79078408D01*
X161377117Y-79165537D01*
X161232228Y-79225552D01*
X161078414Y-79256148D01*
X160921586Y-79256148D01*
X160767772Y-79225552D01*
X160622883Y-79165537D01*
X160492485Y-79078408D01*
X160381592Y-78967515D01*
X160294463Y-78837117D01*
X160234448Y-78692228D01*
X160203852Y-78538414D01*
X160203852Y-78381586D01*
X160234448Y-78227772D01*
X160294463Y-78082883D01*
X160381592Y-77952485D01*
X160492485Y-77841592D01*
X160622883Y-77754463D01*
X160767772Y-77694448D01*
X160921586Y-77663852D01*
X161078414Y-77663852D01*
X161232228Y-77694448D01*
G37*
G36*
X163772228Y-77694448D02*
G01*
X163917117Y-77754463D01*
X164047515Y-77841592D01*
X164158408Y-77952485D01*
X164245537Y-78082883D01*
X164305552Y-78227772D01*
X164336148Y-78381586D01*
X164336148Y-78538414D01*
X164305552Y-78692228D01*
X164245537Y-78837117D01*
X164158408Y-78967515D01*
X164047515Y-79078408D01*
X163917117Y-79165537D01*
X163772228Y-79225552D01*
X163618414Y-79256148D01*
X163461586Y-79256148D01*
X163307772Y-79225552D01*
X163162883Y-79165537D01*
X163032485Y-79078408D01*
X162921592Y-78967515D01*
X162834463Y-78837117D01*
X162774448Y-78692228D01*
X162743852Y-78538414D01*
X162743852Y-78381586D01*
X162774448Y-78227772D01*
X162834463Y-78082883D01*
X162921592Y-77952485D01*
X163032485Y-77841592D01*
X163162883Y-77754463D01*
X163307772Y-77694448D01*
X163461586Y-77663852D01*
X163618414Y-77663852D01*
X163772228Y-77694448D01*
G37*
G36*
X166312228Y-77694448D02*
G01*
X166457117Y-77754463D01*
X166587515Y-77841592D01*
X166698408Y-77952485D01*
X166785537Y-78082883D01*
X166845552Y-78227772D01*
X166876148Y-78381586D01*
X166876148Y-78538414D01*
X166845552Y-78692228D01*
X166785537Y-78837117D01*
X166698408Y-78967515D01*
X166587515Y-79078408D01*
X166457117Y-79165537D01*
X166312228Y-79225552D01*
X166158414Y-79256148D01*
X166001586Y-79256148D01*
X165847772Y-79225552D01*
X165702883Y-79165537D01*
X165572485Y-79078408D01*
X165461592Y-78967515D01*
X165374463Y-78837117D01*
X165314448Y-78692228D01*
X165283852Y-78538414D01*
X165283852Y-78381586D01*
X165314448Y-78227772D01*
X165374463Y-78082883D01*
X165461592Y-77952485D01*
X165572485Y-77841592D01*
X165702883Y-77754463D01*
X165847772Y-77694448D01*
X166001586Y-77663852D01*
X166158414Y-77663852D01*
X166312228Y-77694448D01*
G37*
G36*
X168852228Y-77694448D02*
G01*
X168997117Y-77754463D01*
X169127515Y-77841592D01*
X169238408Y-77952485D01*
X169325537Y-78082883D01*
X169385552Y-78227772D01*
X169416148Y-78381586D01*
X169416148Y-78538414D01*
X169385552Y-78692228D01*
X169325537Y-78837117D01*
X169238408Y-78967515D01*
X169127515Y-79078408D01*
X168997117Y-79165537D01*
X168852228Y-79225552D01*
X168698414Y-79256148D01*
X168541586Y-79256148D01*
X168387772Y-79225552D01*
X168242883Y-79165537D01*
X168112485Y-79078408D01*
X168001592Y-78967515D01*
X167914463Y-78837117D01*
X167854448Y-78692228D01*
X167823852Y-78538414D01*
X167823852Y-78381586D01*
X167854448Y-78227772D01*
X167914463Y-78082883D01*
X168001592Y-77952485D01*
X168112485Y-77841592D01*
X168242883Y-77754463D01*
X168387772Y-77694448D01*
X168541586Y-77663852D01*
X168698414Y-77663852D01*
X168852228Y-77694448D01*
G37*
M02*
